<?xml version="1.0" encoding="utf-8"?>
<svg version="1.1" xmlns:xlink="http://www.w3.org/1999/xlink" width="421px" height="421px" xmlns="http://www.w3.org/2000/svg">
  <g transform="matrix(1 0 0 1 -33 -1130 )">
    <path d="M 243.5 1130  C 361.38 1130  454 1222.62  454 1340.5  C 454 1458.38  361.38 1551  243.5 1551  C 125.62 1551  33 1458.38  33 1340.5  C 33 1222.62  125.62 1130  243.5 1130  Z " fill-rule="nonzero" fill="#ffffff" stroke="none" />
    <path d="M 243.5 1130.5  C 361.1 1130.5  453.5 1222.9  453.5 1340.5  C 453.5 1458.1  361.1 1550.5  243.5 1550.5  C 125.9 1550.5  33.5 1458.1  33.5 1340.5  C 33.5 1222.9  125.9 1130.5  243.5 1130.5  Z " stroke-width="1" stroke="#797979" fill="none" />
  </g>
</svg>