<?xml version="1.0" encoding="utf-8"?>
<svg version="1.1" xmlns:xlink="http://www.w3.org/1999/xlink" width="110px" height="50px" xmlns="http://www.w3.org/2000/svg">
  <g transform="matrix(1 0 0 1 -513 -2518 )">
    <path d="M 533 2567  L 613 2567  C 618.04 2567  622 2563.04  622 2558  L 622 2538  C 622 2534.15667238214  619.697238676867 2530.94137057968  616.368810718991 2529.63118928101  C 615.466572206261 2527.33911268559  613.660887314411 2525.53342779374  611.368810718991 2524.63118928101  C 610.05862942032 2521.30276132313  606.84332761786 2519  603 2519  L 523 2519  C 517.96 2519  514 2522.96  514 2528  L 514 2548  C 514 2551.84332761786  516.302761323133 2555.05862942032  519.631189281009 2556.36881071899  C 520.533427793739 2558.66088731441  522.339112685589 2560.46657220626  524.631189281009 2561.36881071899  C 525.94137057968 2564.69723867687  529.15667238214 2567  533 2567  Z " fill-rule="nonzero" fill="#199ed8" stroke="none" />
  </g>
</svg>