<?xml version="1.0" encoding="utf-8"?>
<svg version="1.1" xmlns:xlink="http://www.w3.org/1999/xlink" width="50px" height="44px" xmlns="http://www.w3.org/2000/svg">
  <g transform="matrix(1 0 0 1 -437 -2034 )">
    <path d="M 43.84765625 22  L 44.53125 22  C 46.044921875 22  47.3347981770833 22.5360863095238  48.40087890625 23.6082589285714  C 49.4669596354167 24.680431547619  50 25.9776785714286  50 27.5  L 50 36.9285714285714  C 50 37.1577380952381  49.9267578125 37.3459821428571  49.7802734375 37.4933035714286  C 49.6337890625 37.640625  49.4466145833333 37.7142857142857  49.21875 37.7142857142857  L 46.875 37.7142857142857  L 46.875 39.2857142857143  C 46.875 40.5952380952381  46.4192708333333 41.7083333333333  45.5078125 42.625  C 44.5963541666667 43.5416666666667  43.4895833333333 44  42.1875 44  C 40.8854166666667 44  39.7786458333333 43.5416666666667  38.8671875 42.625  C 37.9557291666667 41.7083333333333  37.5 40.5952380952381  37.5 39.2857142857143  L 37.5 37  L 12.5 37  L 12.5 39.2857142857143  C 12.5 40.5952380952381  12.0442708333333 41.7083333333333  11.1328125 42.625  C 10.2213541666667 43.5416666666667  9.11458333333333 44  7.8125 44  C 6.51041666666667 44  5.40364583333333 43.5416666666667  4.4921875 42.625  C 3.58072916666667 41.7083333333333  3.125 40.5952380952381  3.125 39.2857142857143  L 3.125 37.7142857142857  L 0.78125 37.7142857142857  C 0.553385416666667 37.7142857142857  0.3662109375 37.640625  0.2197265625 37.4933035714286  C 0.0732421875 37.3459821428571  0 37.1577380952381  0 36.9285714285714  L 0 27.5  C 0 25.9776785714286  0.533040364583333 24.680431547619  1.59912109375 23.6082589285714  C 2.66520182291667 22.5360863095238  3.955078125 22  5.46875 22  L 6.15234375 22  L 8.7158203125 11.7120535714286  C 9.09016927083333 10.1733630952381  9.9365234375 8.88430059523809  11.2548828125 7.84486607142857  C 12.5732421875 6.80543154761904  14.0299479166667 6.28571428571429  15.625 6.28571428571429  L 18.75 6.28571428571429  L 18.75 0.785714285714288  C 18.75 0.556547619047615  18.8232421875 0.368303571428571  18.9697265625 0.220982142857141  C 19.1162109375 0.0736607142857122  19.3033854166667 0  19.53125 0  L 30.46875 0  C 30.6966145833333 0  30.8837890625 0.0736607142857122  31.0302734375 0.220982142857141  C 31.1767578125 0.368303571428571  31.25 0.556547619047615  31.25 0.785714285714288  L 31.25 6.28571428571429  L 34.375 6.28571428571429  C 35.9700520833333 6.28571428571429  37.4267578125 6.80543154761904  38.7451171875 7.84486607142857  C 40.0634765625 8.88430059523809  40.9098307291667 10.1733630952381  41.2841796875 11.7120535714286  L 43.84765625 22  Z M 5.0537109375 32.6316964285714  C 5.81868489583333 33.4010416666667  6.73828125 33.7857142857143  7.8125 33.7857142857143  C 8.88671875 33.7857142857143  9.80631510416667 33.4010416666667  10.5712890625 32.6316964285714  C 11.3362630208333 31.8623511904762  11.71875 30.9375  11.71875 29.8571428571429  C 11.71875 28.7767857142857  11.3362630208333 27.8519345238095  10.5712890625 27.0825892857143  C 9.80631510416667 26.313244047619  8.88671875 25.9285714285714  7.8125 25.9285714285714  C 6.73828125 25.9285714285714  5.81868489583333 26.313244047619  5.0537109375 27.0825892857143  C 4.28873697916667 27.8519345238095  3.90625 28.7767857142857  3.90625 29.8571428571429  C 3.90625 30.9375  4.28873697916667 31.8623511904762  5.0537109375 32.6316964285714  Z M 14.7705078125 13.234375  L 12.59765625 22  L 37.40234375 22  L 35.2294921875 13.234375  C 35.1969401041667 13.1034226190476  35.0830078125 12.960193452381  34.8876953125 12.8046875  C 34.6923828125 12.649181547619  34.521484375 12.5714285714286  34.375 13  L 15.625 13  C 15.478515625 12.5714285714286  15.3076171875 12.649181547619  15.1123046875 12.8046875  C 14.9169921875 12.960193452381  14.8030598958333 13.1034226190476  14.7705078125 13.234375  Z M 39.4287109375 32.6316964285714  C 40.1936848958333 33.4010416666667  41.11328125 33.7857142857143  42.1875 33.7857142857143  C 43.26171875 33.7857142857143  44.1813151041667 33.4010416666667  44.9462890625 32.6316964285714  C 45.7112630208333 31.8623511904762  46.09375 30.9375  46.09375 29.8571428571429  C 46.09375 28.7767857142857  45.7112630208333 27.8519345238095  44.9462890625 27.0825892857143  C 44.1813151041667 26.313244047619  43.26171875 25.9285714285714  42.1875 25.9285714285714  C 41.11328125 25.9285714285714  40.1936848958333 26.313244047619  39.4287109375 27.0825892857143  C 38.6637369791667 27.8519345238095  38.28125 28.7767857142857  38.28125 29.8571428571429  C 38.28125 30.9375  38.6637369791667 31.8623511904762  39.4287109375 32.6316964285714  Z " fill-rule="nonzero" fill="#4ad2c5" stroke="none" transform="matrix(1 0 0 1 437 2034 )" />
  </g>
</svg>