<?xml version="1.0" encoding="utf-8"?>
<svg version="1.1" xmlns:xlink="http://www.w3.org/1999/xlink" width="25px" height="25px" xmlns="http://www.w3.org/2000/svg">
  <g transform="matrix(1 0 0 1 -724 -2715 )">
    <path d="M 24.4384765625 14.7283669486012  C 24.5415581597222 14.8313814790718  24.5930989583333 14.9533723704186  24.5930989583333 15.0943396226415  C 24.5930989583333 15.1485577965734  24.5876736111111 15.1865105183257  24.5768229166667 15.2081977878985  C 23.8823784722222 18.1142919106485  22.4283854166667 20.4700715679896  20.21484375 22.2755367599219  C 18.0013020833333 24.0810019518543  15.4079861111111 24.9837345478204  12.4348958333333 24.9837345478204  C 10.8506944444444 24.9837345478204  9.31803385416667 24.685534591195  7.8369140625 24.089134677944  C 6.35579427083333 23.4927347646931  5.03472222222222 22.6415094339623  3.87369791666667 21.5354586857515  L 1.77408854166667 23.6337020169161  C 1.56792534722222 23.8397310778573  1.32378472222222 23.9427456083279  1.04166666666667 23.9427456083279  C 0.759548611111111 23.9427456083279  0.515407986111111 23.8397310778573  0.309244791666667 23.6337020169161  C 0.103081597222222 23.4276729559748  0 23.1836911732813  0 22.9017566688354  L 0 15.6148340923878  C 0 15.3328995879419  0.103081597222222 15.0889178052483  0.309244791666667 14.8828887443071  C 0.515407986111111 14.6768596833659  0.759548611111111 14.5738451528953  1.04166666666667 14.5738451528953  L 8.33333333333333 14.5738451528953  C 8.61545138888889 14.5738451528953  8.85959201388889 14.6768596833659  9.06575520833333 14.8828887443071  C 9.27191840277778 15.0889178052483  9.375 15.3328995879419  9.375 15.6148340923878  C 9.375 15.8967685968337  9.27191840277778 16.1407503795272  9.06575520833333 16.3467794404684  L 6.8359375 18.5751463890696  C 7.60633680555556 19.2908262849707  8.47981770833333 19.8438516590761  9.45638020833333 20.2342225113858  C 10.4329427083333 20.6245933636955  11.4474826388889 20.8197787898504  12.5 20.8197787898504  C 13.9539930555556 20.8197787898504  15.3103298611111 20.467360659293  16.5690104166667 19.7625243981783  C 17.8276909722222 19.0576881370635  18.8368055555556 18.0871828236825  19.5963541666667 16.8510084580351  C 19.7157118055556 16.6666666666667  20.0032552083333 16.0323140316634  20.458984375 14.9479505530254  C 20.5457899305556 14.6985469529386  20.7085503472222 14.5738451528953  20.947265625 14.5738451528953  L 24.072265625 14.5738451528953  C 24.2133246527778 14.5738451528953  24.3353949652778 14.6253524181306  24.4384765625 14.7283669486012  Z M 24.6907552083333 1.35003253090436  C 24.8969184027778 1.55606159184558  25 1.80004337453914  25 2.08197787898504  L 25 9.36890045543266  C 25 9.65083495987855  24.8969184027778 9.89481674257211  24.6907552083333 10.1008458035133  C 24.4845920138889 10.3068748644546  24.2404513888889 10.4098893949252  23.9583333333333 10.4098893949252  L 16.6666666666667 10.4098893949252  C 16.3845486111111 10.4098893949252  16.1404079861111 10.3068748644546  15.9342447916667 10.1008458035133  C 15.7280815972222 9.89481674257211  15.625 9.65083495987855  15.625 9.36890045543266  C 15.625 9.08696595098677  15.7280815972222 8.84298416829321  15.9342447916667 8.63695510735198  L 18.1803385416667 6.39232270657124  C 16.5744357638889 4.90674474083713  14.6809895833333 4.16395575797007  12.5 4.16395575797007  C 11.0460069444444 4.16395575797007  9.68967013888889 4.51637388852743  8.43098958333333 5.22121014964216  C 7.17230902777778 5.92604641075689  6.16319444444445 6.89655172413793  5.40364583333333 8.1327260897853  C 5.28428819444444 8.31706788115376  4.99674479166667 8.95142051615702  4.541015625 10.0357839947951  C 4.45421006944444 10.2851875948818  4.29144965277778 10.4098893949252  4.052734375 10.4098893949252  L 0.813802083333333 10.4098893949252  C 0.672743055555555 10.4098893949252  0.550672743055556 10.3583821296899  0.447591145833333 10.2553675992193  C 0.344509548611111 10.1523530687486  0.29296875 10.0303621774019  0.29296875 9.88939492517892  L 0.29296875 9.77553675992193  C 0.998263888888889 6.86944263717198  2.46310763888889 4.51366297983084  4.6875 2.7081977878985  C 6.91189236111111 0.902732595966169  9.51605902777778 0  12.5 0  C 14.0842013888889 0  15.625 0.300910865322057  17.1223958333333 0.902732595966169  C 18.6197916666667 1.50455432661028  19.9490017361111 2.35306874864454  21.1100260416667 3.44827586206897  L 23.2259114583333 1.35003253090436  C 23.4320746527778 1.14400346996313  23.6762152777778 1.04098893949252  23.9583333333333 1.04098893949252  C 24.2404513888889 1.04098893949252  24.4845920138889 1.14400346996313  24.6907552083333 1.35003253090436  Z " fill-rule="nonzero" fill="#999999" stroke="none" transform="matrix(1 0 0 1 724 2715 )" />
  </g>
</svg>