<?xml version="1.0" encoding="utf-8"?>
<svg version="1.1" xmlns:xlink="http://www.w3.org/1999/xlink" width="11px" height="20px" xmlns="http://www.w3.org/2000/svg">
  <g transform="matrix(1 0 0 1 -738 -2935 )">
    <path d="M 10.5285714285714 14.8148148148148  C 10.7285714285714 14.8148148148148  10.8666666666667 14.8881172839506  10.9428571428571 15.0347222222222  C 11.0190476190476 15.1813271604938  10.9952380952381 15.3163580246914  10.8714285714286 15.4398148148148  L 5.87142857142857 19.8842592592593  C 5.77619047619048 19.9614197530864  5.66666666666667 20  5.54285714285714 20  C 5.40952380952381 20  5.2952380952381 19.9614197530864  5.2 19.8842592592593  L 0.128571428571429 15.4398148148148  C 0.00476190476190475 15.3163580246914  -0.0190476190476191 15.1813271604938  0.0571428571428571 15.0347222222222  C 0.142857142857143 14.8881172839506  0.280952380952381 14.8148148148148  0.471428571428571 14.8148148148148  L 3.67142857142857 14.8148148148148  L 3.67142857142857 0.37037037037037  C 3.67142857142857 0.262345679012344  3.71428571428571 0.173611111111112  3.8 0.104166666666667  C 3.88571428571429 0.0347222222222232  3.9952380952381 0  4.12857142857143 0  L 6.87142857142857 0  C 7.0047619047619 0  7.11428571428571 0.0347222222222232  7.2 0.104166666666667  C 7.28571428571429 0.173611111111112  7.32857142857143 0.262345679012344  7.32857142857143 0.37037037037037  L 7.32857142857143 14.8148148148148  L 10.5285714285714 14.8148148148148  Z " fill-rule="nonzero" fill="#999999" stroke="none" transform="matrix(1 0 0 1 738 2935 )" />
  </g>
</svg>