<?xml version="1.0" encoding="utf-8"?>
<svg version="1.1" xmlns:xlink="http://www.w3.org/1999/xlink" width="11px" height="19px" xmlns="http://www.w3.org/2000/svg">
  <g transform="matrix(1 0 0 1 -738 -2981 )">
    <path d="M 10.8714285714286 4.33217592592593  C 10.9952380952381 4.44945987654321  11.0190476190476 4.57773919753086  10.9428571428571 4.71701388888889  C 10.8571428571429 4.85628858024691  10.7190476190476 4.92592592592593  10.5285714285714 4.92592592592593  L 7.32857142857143 4.92592592592593  L 7.32857142857143 18.6481481481481  C 7.32857142857143 18.7507716049383  7.28571428571429 18.8350694444444  7.2 18.9010416666667  C 7.11428571428571 18.9670138888889  7.0047619047619 19  6.87142857142857 19  L 4.12857142857143 19  C 3.9952380952381 19  3.88571428571429 18.9670138888889  3.8 18.9010416666667  C 3.71428571428571 18.8350694444444  3.67142857142857 18.7507716049383  3.67142857142857 18.6481481481481  L 3.67142857142857 4.92592592592593  L 0.471428571428571 4.92592592592593  C 0.271428571428571 4.92592592592593  0.133333333333333 4.85628858024691  0.0571428571428571 4.71701388888889  C -0.0190476190476191 4.57773919753086  0.00476190476190475 4.44945987654321  0.128571428571429 4.33217592592593  L 5.12857142857143 0.109953703703705  C 5.22380952380952 0.0366512345679009  5.33333333333333 0  5.45714285714286 0  C 5.59047619047619 0  5.7047619047619 0.0366512345679009  5.8 0.109953703703705  L 10.8714285714286 4.33217592592593  Z " fill-rule="nonzero" fill="#999999" stroke="none" transform="matrix(1 0 0 1 738 2981 )" />
  </g>
</svg>