<?xml version="1.0" encoding="utf-8"?>
<svg version="1.1" xmlns:xlink="http://www.w3.org/1999/xlink" width="40px" height="40px" xmlns="http://www.w3.org/2000/svg">
  <defs>
    <mask fill="white" id="clip655">
      <path d="M 30 15  C 30 6.6  23.4 0  15 0  C 6.6 0  0 6.6  0 15  C 0 23.4  6.6 30  15 30  C 23.4 30  30 23.4  30 15  Z " fill-rule="evenodd" />
    </mask>
    <filter x="407px" y="1617px" width="40px" height="40px" filterUnits="userSpaceOnUse" id="filter656">
      <feOffset dx="1" dy="1" in="SourceAlpha" result="shadowOffsetInner" />
      <feGaussianBlur stdDeviation="2.5" in="shadowOffsetInner" result="shadowGaussian" />
      <feComposite in2="shadowGaussian" operator="atop" in="SourceAlpha" result="shadowComposite" />
      <feColorMatrix type="matrix" values="0 0 0 0 0  0 0 0 0 0  0 0 0 0 0  0 0 0 0.698039215686274 0  " in="shadowComposite" />
    </filter>
    <g id="widget657">
      <path d="M 30 15  C 30 6.6  23.4 0  15 0  C 6.6 0  0 6.6  0 15  C 0 23.4  6.6 30  15 30  C 23.4 30  30 23.4  30 15  Z " fill-rule="nonzero" fill="#009dd9" stroke="none" transform="matrix(1 0 0 1 411 1621 )" />
      <path d="M 30 15  C 30 6.6  23.4 0  15 0  C 6.6 0  0 6.6  0 15  C 0 23.4  6.6 30  15 30  C 23.4 30  30 23.4  30 15  Z " stroke-width="2" stroke="#ffffff" fill="none" transform="matrix(1 0 0 1 411 1621 )" mask="url(#clip655)" />
    </g>
  </defs>
  <g transform="matrix(1 0 0 1 -407 -1617 )">
    <use xlink:href="#widget657" filter="url(#filter656)" />
    <use xlink:href="#widget657" />
  </g>
</svg>