<?xml version="1.0" encoding="utf-8"?>
<svg version="1.1" xmlns:xlink="http://www.w3.org/1999/xlink" width="110px" height="70px" xmlns="http://www.w3.org/2000/svg">
  <g transform="matrix(1 0 0 1 -569 -1250 )">
    <path d="M 579.5 1319.5  L 678.5 1319.5  L 678.5 1260.5  L 673.5 1260.5  L 673.5 1255.5  L 668.5 1255.5  L 668.5 1250.5  L 569.5 1250.5  L 569.5 1309.5  L 574.5 1309.5  L 574.5 1314.5  L 579.5 1314.5  L 579.5 1319.5  Z " fill-rule="nonzero" fill="#cc9900" stroke="none" />
    <path d="M 579.5 1319.5  L 678.5 1319.5  L 678.5 1260.5  L 673.5 1260.5  L 673.5 1255.5  L 668.5 1255.5  L 668.5 1250.5  L 569.5 1250.5  L 569.5 1309.5  L 574.5 1309.5  L 574.5 1314.5  L 579.5 1314.5  L 579.5 1319.5  Z " stroke-width="1" stroke="#797979" fill="none" />
    <path d="M 673.5 1261  L 673.5 1314.5  L 580 1314.5  M 668.5 1256  L 668.5 1309.5  L 575 1309.5  " stroke-width="1" stroke="#797979" fill="none" />
  </g>
</svg>