<?xml version="1.0" encoding="utf-8"?>
<svg version="1.1" xmlns:xlink="http://www.w3.org/1999/xlink" width="290px" height="85px" xmlns="http://www.w3.org/2000/svg">
  <g transform="matrix(1 0 0 1 -213 -4567 )">
    <path d="M 246.863417214103 4567.5  C 246.863417214103 4567.5  243.244972892057 4568.03028925409  243.244972892057 4568.03028925409  C 243.244972892057 4568.03028925409  213.562826985895 4609.5  213.562826985895 4609.5  C 213.562826985895 4609.5  243.244972892057 4650.96971074591  243.244972892057 4650.96971074591  C 243.244972892057 4650.96971074591  246.863417214103 4651.5  246.863417214103 4651.5  C 246.863417214103 4651.5  502.5 4651.5  502.5 4651.5  C 502.5 4651.5  502.5 4567.5  502.5 4567.5  C 502.5 4567.5  246.863417214103 4567.5  246.863417214103 4567.5  Z " fill-rule="nonzero" fill="#04d4d4" stroke="none" />
    <path d="M 246.863417214103 4567.5  C 246.863417214103 4567.5  243.244972892057 4568.03028925409  243.244972892057 4568.03028925409  C 243.244972892057 4568.03028925409  213.562826985895 4609.5  213.562826985895 4609.5  C 213.562826985895 4609.5  243.244972892057 4650.96971074591  243.244972892057 4650.96971074591  C 243.244972892057 4650.96971074591  246.863417214103 4651.5  246.863417214103 4651.5  C 246.863417214103 4651.5  502.5 4651.5  502.5 4651.5  C 502.5 4651.5  502.5 4567.5  502.5 4567.5  C 502.5 4567.5  246.863417214103 4567.5  246.863417214103 4567.5  Z " stroke-width="1" stroke="#797979" fill="none" />
  </g>
</svg>