<?xml version="1.0" encoding="utf-8"?>
<svg version="1.1" xmlns:xlink="http://www.w3.org/1999/xlink" width="12px" height="12px" viewBox="470 8796  12 12" xmlns="http://www.w3.org/2000/svg">
  <path d="M 476 8796  C 479.36 8796  482 8798.64  482 8802  C 482 8805.36  479.36 8808  476 8808  C 472.64 8808  470 8805.36  470 8802  C 470 8798.64  472.64 8796  476 8796  Z " fill-rule="nonzero" fill="#ffffff" stroke="none" />
  <path d="M 476 8796.5  C 479.08 8796.5  481.5 8798.92  481.5 8802  C 481.5 8805.08  479.08 8807.5  476 8807.5  C 472.92 8807.5  470.5 8805.08  470.5 8802  C 470.5 8798.92  472.92 8796.5  476 8796.5  Z " stroke-width="1" stroke="#797979" fill="none" />
  <path d="M 476 8805  C 474.32 8805  473 8803.68  473 8802  C 473 8800.32  474.32 8799  476 8799  C 477.68 8799  479 8800.32  479 8802  C 479 8803.68  477.68 8805  476 8805  " fill-rule="nonzero" fill="#797979" stroke="none" />
</svg>