<?xml version="1.0" encoding="utf-8"?>
<svg version="1.1" xmlns:xlink="http://www.w3.org/1999/xlink" width="12px" height="12px" viewBox="334 8930  12 12" xmlns="http://www.w3.org/2000/svg">
  <path d="M 340 8930  C 343.36 8930  346 8932.64  346 8936  C 346 8939.36  343.36 8942  340 8942  C 336.64 8942  334 8939.36  334 8936  C 334 8932.64  336.64 8930  340 8930  Z " fill-rule="nonzero" fill="#ffffff" stroke="none" />
  <path d="M 340 8930.5  C 343.08 8930.5  345.5 8932.92  345.5 8936  C 345.5 8939.08  343.08 8941.5  340 8941.5  C 336.92 8941.5  334.5 8939.08  334.5 8936  C 334.5 8932.92  336.92 8930.5  340 8930.5  Z " stroke-width="1" stroke="#797979" fill="none" />
  <path d="M 340 8939  C 338.32 8939  337 8937.68  337 8936  C 337 8934.32  338.32 8933  340 8933  C 341.68 8933  343 8934.32  343 8936  C 343 8937.68  341.68 8939  340 8939  " fill-rule="nonzero" fill="#797979" stroke="none" />
</svg>