<?xml version="1.0" encoding="utf-8"?>
<svg version="1.1" xmlns:xlink="http://www.w3.org/1999/xlink" width="12px" height="12px" viewBox="334 8796  12 12" xmlns="http://www.w3.org/2000/svg">
  <path d="M 340 8796  C 343.36 8796  346 8798.64  346 8802  C 346 8805.36  343.36 8808  340 8808  C 336.64 8808  334 8805.36  334 8802  C 334 8798.64  336.64 8796  340 8796  Z " fill-rule="nonzero" fill="#ffffff" stroke="none" />
  <path d="M 340 8796.5  C 343.08 8796.5  345.5 8798.92  345.5 8802  C 345.5 8805.08  343.08 8807.5  340 8807.5  C 336.92 8807.5  334.5 8805.08  334.5 8802  C 334.5 8798.92  336.92 8796.5  340 8796.5  Z " stroke-width="1" stroke="#797979" fill="none" />
  <path d="M 340 8805  C 338.32 8805  337 8803.68  337 8802  C 337 8800.32  338.32 8799  340 8799  C 341.68 8799  343 8800.32  343 8802  C 343 8803.68  341.68 8805  340 8805  " fill-rule="nonzero" fill="#797979" stroke="none" />
</svg>