<?xml version="1.0" encoding="utf-8"?>
<svg version="1.1" xmlns:xlink="http://www.w3.org/1999/xlink" width="12px" height="12px" viewBox="498 388  12 12" xmlns="http://www.w3.org/2000/svg">
  <path d="M 504 388  C 507.36 388  510 390.64  510 394  C 510 397.36  507.36 400  504 400  C 500.64 400  498 397.36  498 394  C 498 390.64  500.64 388  504 388  Z " fill-rule="nonzero" fill="#ffffff" stroke="none" />
  <path d="M 504 388.5  C 507.08 388.5  509.5 390.92  509.5 394  C 509.5 397.08  507.08 399.5  504 399.5  C 500.92 399.5  498.5 397.08  498.5 394  C 498.5 390.92  500.92 388.5  504 388.5  Z " stroke-width="1" stroke="#797979" fill="none" />
  <path d="M 504 397  C 502.32 397  501 395.68  501 394  C 501 392.32  502.32 391  504 391  C 505.68 391  507 392.32  507 394  C 507 395.68  505.68 397  504 397  " fill-rule="nonzero" fill="#797979" stroke="none" />
</svg>