<?xml version="1.0" encoding="utf-8"?>
<svg version="1.1" xmlns:xlink="http://www.w3.org/1999/xlink" width="12px" height="12px" viewBox="371 388  12 12" xmlns="http://www.w3.org/2000/svg">
  <path d="M 377 388  C 380.36 388  383 390.64  383 394  C 383 397.36  380.36 400  377 400  C 373.64 400  371 397.36  371 394  C 371 390.64  373.64 388  377 388  Z " fill-rule="nonzero" fill="#ffffff" stroke="none" />
  <path d="M 377 388.5  C 380.08 388.5  382.5 390.92  382.5 394  C 382.5 397.08  380.08 399.5  377 399.5  C 373.92 399.5  371.5 397.08  371.5 394  C 371.5 390.92  373.92 388.5  377 388.5  Z " stroke-width="1" stroke="#797979" fill="none" />
  <path d="M 377 397  C 375.32 397  374 395.68  374 394  C 374 392.32  375.32 391  377 391  C 378.68 391  380 392.32  380 394  C 380 395.68  378.68 397  377 397  " fill-rule="nonzero" fill="#797979" stroke="none" />
</svg>