<?xml version="1.0" encoding="utf-8"?>
<svg version="1.1" xmlns:xlink="http://www.w3.org/1999/xlink" width="110px" height="70px" xmlns="http://www.w3.org/2000/svg">
  <g transform="matrix(1 0 0 1 -430 -2699 )">
    <path d="M 450 2768.5  L 530 2768.5  C 535.32 2768.5  539.5 2764.32  539.5 2759  L 539.5 2719  C 539.5 2715.01960377368  537.16005511139 2711.67737433516  533.753426824863 2710.24657317514  C 532.804162307016 2707.98644685692  531.013553143075 2706.19583769298  528.753426824863 2705.24657317514  C 527.322625664841 2701.83994488861  523.980396226322 2699.5  520 2699.5  L 440 2699.5  C 434.68 2699.5  430.5 2703.68  430.5 2709  L 430.5 2749  C 430.5 2752.98039622632  432.83994488861 2756.32262566484  436.246573175137 2757.75342682486  C 437.195837692984 2760.01355314308  438.986446856925 2761.80416230702  441.246573175137 2762.75342682486  C 442.677374335159 2766.16005511139  446.019603773678 2768.5  450 2768.5  Z " fill-rule="nonzero" fill="#cc6600" stroke="none" />
    <path d="M 450.5 2768.5  L 529.5 2768.5  C 535.1 2768.5  539.5 2764.1  539.5 2758.5  L 539.5 2719.5  C 539.5 2715.38207543127  537.120786603431 2711.91302724343  533.634752186914 2710.36524781309  C 532.644031495375 2708.13386628665  530.86613371335 2706.35596850463  528.634752186914 2705.36524781309  C 527.086972756572 2701.87921339657  523.617924568727 2699.5  519.5 2699.5  L 440.5 2699.5  C 434.9 2699.5  430.5 2703.9  430.5 2709.5  L 430.5 2748.5  C 430.5 2752.61792456873  432.879213396569 2756.08697275657  436.365247813086 2757.63475218691  C 437.355968504626 2759.86613371335  439.13386628665 2761.64403149537  441.365247813086 2762.63475218691  C 442.913027243428 2766.12078660343  446.382075431273 2768.5  450.5 2768.5  Z " stroke-width="1" stroke="#797979" fill="none" />
    <path d="M 533.678014577568 2710.07198542243  C 534.207220379431 2711.26390566801  534.5 2712.59202834029  534.5 2714  L 534.5 2753.5  C 534.5 2759.1  530.1 2763.5  524.5 2763.5  L 445 2763.5  C 441.087971659709 2763.5  437.792375881257 2761.23974727326  436.321985422432 2757.92801457757  M 528.678014577568 2705.07198542243  C 529.207220379431 2706.26390566801  529.5 2707.59202834029  529.5 2709  L 529.5 2748.499  C 529.5 2754.099  525.1 2758.499  519.5 2758.499  L 440 2758.5  C 438.592028340291 2758.5  437.263905668009 2758.20722037943  436.071985422432 2757.67801457757  " stroke-width="1" stroke="#797979" fill="none" />
  </g>
</svg>