<?xml version="1.0" encoding="utf-8"?>
<svg version="1.1" xmlns:xlink="http://www.w3.org/1999/xlink" width="110px" height="50px" xmlns="http://www.w3.org/2000/svg">
  <g transform="matrix(1 0 0 1 -930 -717 )">
    <path d="M 950 766.5  L 1030 766.5  C 1035.32 766.5  1039.5 762.32  1039.5 757  L 1039.5 737  C 1039.5 733.019603773678  1037.16005511139 729.677374335159  1033.75342682486 728.246573175137  C 1032.80416230702 725.986446856925  1031.01355314308 724.195837692984  1028.75342682486 723.246573175137  C 1027.32262566484 719.83994488861  1023.98039622632 717.5  1020 717.5  L 940 717.5  C 934.68 717.5  930.5 721.68  930.5 727  L 930.5 747  C 930.5 750.980396226322  932.83994488861 754.322625664841  936.246573175137 755.753426824863  C 937.195837692984 758.013553143075  938.986446856925 759.804162307016  941.246573175137 760.753426824863  C 942.677374335159 764.16005511139  946.019603773678 766.5  950 766.5  Z " fill-rule="nonzero" fill="#cc6600" stroke="none" />
    <path d="M 950.5 766.5  L 1029.5 766.5  C 1035.1 766.5  1039.5 762.1  1039.5 756.5  L 1039.5 737.5  C 1039.5 733.382075431273  1037.12078660343 729.913027243428  1033.63475218691 728.365247813086  C 1032.64403149537 726.13386628665  1030.86613371335 724.355968504625  1028.63475218691 723.365247813086  C 1027.08697275657 719.879213396569  1023.61792456873 717.5  1019.5 717.5  L 940.5 717.5  C 934.9 717.5  930.5 721.9  930.5 727.5  L 930.5 746.5  C 930.5 750.617924568727  932.879213396569 754.086972756572  936.365247813086 755.634752186914  C 937.355968504625 757.86613371335  939.13386628665 759.644031495375  941.365247813086 760.634752186914  C 942.913027243428 764.120786603431  946.382075431273 766.5  950.5 766.5  Z " stroke-width="1" stroke="#797979" fill="none" />
    <path d="M 1033.67801457757 728.071985422432  C 1034.20722037943 729.263905668009  1034.5 730.592028340291  1034.5 732  L 1034.5 751.5  C 1034.5 757.1  1030.1 761.5  1024.5 761.5  L 945 761.5  C 941.087971659709 761.5  937.792375881257 759.23974727326  936.321985422432 755.928014577568  M 1028.67801457757 723.071985422432  C 1029.20722037943 724.263905668009  1029.5 725.592028340291  1029.5 727  L 1029.5 746.499  C 1029.5 752.099  1025.1 756.499  1019.5 756.499  L 940 756.5  C 938.592028340291 756.5  937.263905668009 756.207220379431  936.071985422432 755.678014577568  " stroke-width="1" stroke="#797979" fill="none" />
  </g>
</svg>