<?xml version="1.0" encoding="utf-8"?>
<svg version="1.1" xmlns:xlink="http://www.w3.org/1999/xlink" width="144px" height="84px" xmlns="http://www.w3.org/2000/svg">
  <g transform="matrix(1 0 0 1 -808 -633 )">
    <path d="M 808 633  L 952 633  L 952 717  L 808 717  L 808 633  " fill-rule="nonzero" fill="#cccccc" stroke="none" />
    <path d="M 814 639  L 946 639  L 946 711  L 814 711  L 814 639  " fill-rule="nonzero" fill="#ffffff" stroke="none" />
    <path d="M 889.18 658.2  C 885.652 658.2  882.88 655.428  882.88 651.9  C 882.88 648.372  885.652 645.6  889.18 645.6  C 892.708 645.6  895.48 648.372  895.48 651.9  C 895.48 655.428  892.708 658.2  889.18 658.2  " fill-rule="nonzero" fill="#cccccc" stroke="none" />
    <path d="M 816 709  L 816 671.6  L 848 654.6  L 892.8 685.2  L 918.4 664.8  L 944 685.2  L 944 709  L 816 709  " fill-rule="nonzero" fill="#169bd5" stroke="none" />
  </g>
</svg>