<?xml version="1.0" encoding="utf-8"?>
<svg version="1.1" xmlns:xlink="http://www.w3.org/1999/xlink" width="12px" height="12px" viewBox="615 5542  12 12" xmlns="http://www.w3.org/2000/svg">
  <path d="M 621 5542  C 624.36 5542  627 5544.64  627 5548  C 627 5551.36  624.36 5554  621 5554  C 617.64 5554  615 5551.36  615 5548  C 615 5544.64  617.64 5542  621 5542  Z " fill-rule="nonzero" fill="#ffffff" stroke="none" />
  <path d="M 621 5542.5  C 624.08 5542.5  626.5 5544.92  626.5 5548  C 626.5 5551.08  624.08 5553.5  621 5553.5  C 617.92 5553.5  615.5 5551.08  615.5 5548  C 615.5 5544.92  617.92 5542.5  621 5542.5  Z " stroke-width="1" stroke="#797979" fill="none" />
  <path d="M 621 5551  C 619.32 5551  618 5549.68  618 5548  C 618 5546.32  619.32 5545  621 5545  C 622.68 5545  624 5546.32  624 5548  C 624 5549.68  622.68 5551  621 5551  " fill-rule="nonzero" fill="#797979" stroke="none" />
</svg>