<?xml version="1.0" encoding="utf-8"?>
<svg version="1.1" xmlns:xlink="http://www.w3.org/1999/xlink" width="12px" height="12px" viewBox="507 5542  12 12" xmlns="http://www.w3.org/2000/svg">
  <path d="M 513 5542  C 516.36 5542  519 5544.64  519 5548  C 519 5551.36  516.36 5554  513 5554  C 509.64 5554  507 5551.36  507 5548  C 507 5544.64  509.64 5542  513 5542  Z " fill-rule="nonzero" fill="#ffffff" stroke="none" />
  <path d="M 513 5542.5  C 516.08 5542.5  518.5 5544.92  518.5 5548  C 518.5 5551.08  516.08 5553.5  513 5553.5  C 509.92 5553.5  507.5 5551.08  507.5 5548  C 507.5 5544.92  509.92 5542.5  513 5542.5  Z " stroke-width="1" stroke="#797979" fill="none" />
  <path d="M 513 5551  C 511.32 5551  510 5549.68  510 5548  C 510 5546.32  511.32 5545  513 5545  C 514.68 5545  516 5546.32  516 5548  C 516 5549.68  514.68 5551  513 5551  " fill-rule="nonzero" fill="#797979" stroke="none" />
</svg>