<?xml version="1.0" encoding="utf-8"?>
<svg version="1.1" xmlns:xlink="http://www.w3.org/1999/xlink" width="17px" height="13px" xmlns="http://www.w3.org/2000/svg">
  <g transform="matrix(1 0 0 1 -198 -5961 )">
    <path d="M 3.59423828125 8.718125  C 3.85432942708333 8.46354166666667  3.984375 8.1575  3.984375 7.8  C 3.984375 7.4425  3.85432942708333 7.13645833333333  3.59423828125 6.881875  C 3.33414713541667 6.62729166666667  3.021484375 6.5  2.65625 6.5  C 2.291015625 6.5  1.97835286458333 6.62729166666667  1.71826171875 6.881875  C 1.45817057291667 7.13645833333333  1.328125 7.4425  1.328125 7.8  C 1.328125 8.1575  1.45817057291667 8.46354166666667  1.71826171875 8.718125  C 1.97835286458333 8.97270833333333  2.291015625 9.1  2.65625 9.1  C 3.021484375 9.1  3.33414713541667 8.97270833333333  3.59423828125 8.718125  Z M 5.02197265625 2.299375  L 4.283203125 5.2  L 12.716796875 5.2  L 11.97802734375 2.299375  C 11.9669596354167 2.25604166666667  11.92822265625 2.20864583333333  11.86181640625 2.1571875  C 11.79541015625 2.10572916666667  11.7373046875 2.08  11.6875 2.08  L 5.3125 2.08  C 5.2626953125 2.08  5.20458984375 2.10572916666667  5.13818359375 2.1571875  C 5.07177734375 2.20864583333333  5.03304036458333 2.25604166666667  5.02197265625 2.299375  Z M 15.28173828125 8.718125  C 15.5418294270833 8.46354166666667  15.671875 8.1575  15.671875 7.8  C 15.671875 7.4425  15.5418294270833 7.13645833333333  15.28173828125 6.881875  C 15.0216471354167 6.62729166666667  14.708984375 6.5  14.34375 6.5  C 13.978515625 6.5  13.6658528645833 6.62729166666667  13.40576171875 6.881875  C 13.1456705729167 7.13645833333333  13.015625 7.4425  13.015625 7.8  C 13.015625 8.1575  13.1456705729167 8.46354166666667  13.40576171875 8.718125  C 13.6658528645833 8.97270833333333  13.978515625 9.1  14.34375 9.1  C 14.708984375 9.1  15.0216471354167 8.97270833333333  15.28173828125 8.718125  Z M 16.456298828125 5.7321875  C 16.8187662760417 6.08697916666667  17 6.51625  17 7.02  L 17 10.14  C 17 10.2158333333333  16.97509765625 10.278125  16.92529296875 10.326875  C 16.87548828125 10.375625  16.8118489583333 10.4  16.734375 10.4  L 15.9375 10.4  L 15.9375 11.44  C 15.9375 11.8733333333333  15.7825520833333 12.2416666666667  15.47265625 12.545  C 15.1627604166667 12.8483333333333  14.7864583333333 13  14.34375 13  C 13.9010416666667 13  13.5247395833333 12.8483333333333  13.21484375 12.545  C 12.9049479166667 12.2416666666667  12.75 11.8733333333333  12.75 11.44  L 12.75 10.4  L 4.25 10.4  L 4.25 11.44  C 4.25 11.8733333333333  4.09505208333333 12.2416666666667  3.78515625 12.545  C 3.47526041666667 12.8483333333333  3.09895833333333 13  2.65625 13  C 2.21354166666667 13  1.83723958333333 12.8483333333333  1.52734375 12.545  C 1.21744791666667 12.2416666666667  1.0625 11.8733333333333  1.0625 11.44  L 1.0625 10.4  L 0.265625 10.4  C 0.188151041666667 10.4  0.12451171875 10.375625  0.07470703125 10.326875  C 0.02490234375 10.278125  0 10.2158333333333  0 10.14  L 0 7.02  C 0 6.51625  0.181233723958333 6.08697916666667  0.543701171875 5.7321875  C 0.906168619791667 5.37739583333333  1.3447265625 5.2  1.859375 5.2  L 2.091796875 5.2  L 2.96337890625 1.795625  C 3.09065755208333 1.28645833333333  3.37841796875 0.859895833333332  3.82666015625 0.5159375  C 4.27490234375 0.171979166666666  4.77018229166667 0  5.3125 0  L 11.6875 0  C 12.2298177083333 0  12.72509765625 0.171979166666666  13.17333984375 0.5159375  C 13.62158203125 0.859895833333332  13.9093424479167 1.28645833333333  14.03662109375 1.795625  L 14.908203125 5.2  L 15.140625 5.2  C 15.6552734375 5.2  16.0938313802083 5.37739583333333  16.456298828125 5.7321875  Z " fill-rule="nonzero" fill="#ffffff" stroke="none" transform="matrix(1 0 0 1 198 5961 )" />
  </g>
</svg>