<?xml version="1.0" encoding="utf-8"?>
<svg version="1.1" xmlns:xlink="http://www.w3.org/1999/xlink" width="12px" height="12px" viewBox="769 8078  12 12" xmlns="http://www.w3.org/2000/svg">
  <path d="M 775 8078  C 778.36 8078  781 8080.64  781 8084  C 781 8087.36  778.36 8090  775 8090  C 771.64 8090  769 8087.36  769 8084  C 769 8080.64  771.64 8078  775 8078  Z " fill-rule="nonzero" fill="#ffffff" stroke="none" />
  <path d="M 775 8078.5  C 778.08 8078.5  780.5 8080.92  780.5 8084  C 780.5 8087.08  778.08 8089.5  775 8089.5  C 771.92 8089.5  769.5 8087.08  769.5 8084  C 769.5 8080.92  771.92 8078.5  775 8078.5  Z " stroke-width="1" stroke="#797979" fill="none" />
  <path d="M 775 8087  C 773.32 8087  772 8085.68  772 8084  C 772 8082.32  773.32 8081  775 8081  C 776.68 8081  778 8082.32  778 8084  C 778 8085.68  776.68 8087  775 8087  " fill-rule="nonzero" fill="#797979" stroke="none" />
</svg>