<?xml version="1.0" encoding="utf-8"?>
<svg version="1.1" xmlns:xlink="http://www.w3.org/1999/xlink" width="12px" height="12px" viewBox="864 8078  12 12" xmlns="http://www.w3.org/2000/svg">
  <path d="M 870 8078  C 873.36 8078  876 8080.64  876 8084  C 876 8087.36  873.36 8090  870 8090  C 866.64 8090  864 8087.36  864 8084  C 864 8080.64  866.64 8078  870 8078  Z " fill-rule="nonzero" fill="#ffffff" stroke="none" />
  <path d="M 870 8078.5  C 873.08 8078.5  875.5 8080.92  875.5 8084  C 875.5 8087.08  873.08 8089.5  870 8089.5  C 866.92 8089.5  864.5 8087.08  864.5 8084  C 864.5 8080.92  866.92 8078.5  870 8078.5  Z " stroke-width="1" stroke="#797979" fill="none" />
  <path d="M 870 8087  C 868.32 8087  867 8085.68  867 8084  C 867 8082.32  868.32 8081  870 8081  C 871.68 8081  873 8082.32  873 8084  C 873 8085.68  871.68 8087  870 8087  " fill-rule="nonzero" fill="#797979" stroke="none" />
</svg>