<?xml version="1.0" encoding="utf-8"?>
<svg version="1.1" xmlns:xlink="http://www.w3.org/1999/xlink" width="12px" height="12px" viewBox="1814 7842  12 12" xmlns="http://www.w3.org/2000/svg">
  <path d="M 1820 7842  C 1823.36 7842  1826 7844.64  1826 7848  C 1826 7851.36  1823.36 7854  1820 7854  C 1816.64 7854  1814 7851.36  1814 7848  C 1814 7844.64  1816.64 7842  1820 7842  Z " fill-rule="nonzero" fill="#ffffff" stroke="none" />
  <path d="M 1820 7842.5  C 1823.08 7842.5  1825.5 7844.92  1825.5 7848  C 1825.5 7851.08  1823.08 7853.5  1820 7853.5  C 1816.92 7853.5  1814.5 7851.08  1814.5 7848  C 1814.5 7844.92  1816.92 7842.5  1820 7842.5  Z " stroke-width="1" stroke="#797979" fill="none" />
  <path d="M 1820 7851  C 1818.32 7851  1817 7849.68  1817 7848  C 1817 7846.32  1818.32 7845  1820 7845  C 1821.68 7845  1823 7846.32  1823 7848  C 1823 7849.68  1821.68 7851  1820 7851  " fill-rule="nonzero" fill="#797979" stroke="none" />
</svg>