<?xml version="1.0" encoding="utf-8"?>
<svg version="1.1" xmlns:xlink="http://www.w3.org/1999/xlink" width="12px" height="12px" viewBox="1803 6660  12 12" xmlns="http://www.w3.org/2000/svg">
  <path d="M 1809 6660  C 1812.36 6660  1815 6662.64  1815 6666  C 1815 6669.36  1812.36 6672  1809 6672  C 1805.64 6672  1803 6669.36  1803 6666  C 1803 6662.64  1805.64 6660  1809 6660  Z " fill-rule="nonzero" fill="#ffffff" stroke="none" />
  <path d="M 1809 6660.5  C 1812.08 6660.5  1814.5 6662.92  1814.5 6666  C 1814.5 6669.08  1812.08 6671.5  1809 6671.5  C 1805.92 6671.5  1803.5 6669.08  1803.5 6666  C 1803.5 6662.92  1805.92 6660.5  1809 6660.5  Z " stroke-width="1" stroke="#797979" fill="none" />
  <path d="M 1809 6669  C 1807.32 6669  1806 6667.68  1806 6666  C 1806 6664.32  1807.32 6663  1809 6663  C 1810.68 6663  1812 6664.32  1812 6666  C 1812 6667.68  1810.68 6669  1809 6669  " fill-rule="nonzero" fill="#797979" stroke="none" />
</svg>