<?xml version="1.0" encoding="utf-8"?>
<svg version="1.1" xmlns:xlink="http://www.w3.org/1999/xlink" width="12px" height="12px" viewBox="1801 6706  12 12" xmlns="http://www.w3.org/2000/svg">
  <path d="M 1807 6706  C 1810.36 6706  1813 6708.64  1813 6712  C 1813 6715.36  1810.36 6718  1807 6718  C 1803.64 6718  1801 6715.36  1801 6712  C 1801 6708.64  1803.64 6706  1807 6706  Z " fill-rule="nonzero" fill="#ffffff" stroke="none" />
  <path d="M 1807 6706.5  C 1810.08 6706.5  1812.5 6708.92  1812.5 6712  C 1812.5 6715.08  1810.08 6717.5  1807 6717.5  C 1803.92 6717.5  1801.5 6715.08  1801.5 6712  C 1801.5 6708.92  1803.92 6706.5  1807 6706.5  Z " stroke-width="1" stroke="#797979" fill="none" />
  <path d="M 1807 6715  C 1805.32 6715  1804 6713.68  1804 6712  C 1804 6710.32  1805.32 6709  1807 6709  C 1808.68 6709  1810 6710.32  1810 6712  C 1810 6713.68  1808.68 6715  1807 6715  " fill-rule="nonzero" fill="#797979" stroke="none" />
</svg>