<?xml version="1.0" encoding="utf-8"?>
<svg version="1.1" xmlns:xlink="http://www.w3.org/1999/xlink" width="12px" height="12px" viewBox="444 2405  12 12" xmlns="http://www.w3.org/2000/svg">
  <path d="M 450 2405  C 453.36 2405  456 2407.64  456 2411  C 456 2414.36  453.36 2417  450 2417  C 446.64 2417  444 2414.36  444 2411  C 444 2407.64  446.64 2405  450 2405  Z " fill-rule="nonzero" fill="#ffffff" stroke="none" />
  <path d="M 450 2405.5  C 453.08 2405.5  455.5 2407.92  455.5 2411  C 455.5 2414.08  453.08 2416.5  450 2416.5  C 446.92 2416.5  444.5 2414.08  444.5 2411  C 444.5 2407.92  446.92 2405.5  450 2405.5  Z " stroke-width="1" stroke="#797979" fill="none" />
  <path d="M 450 2414  C 448.32 2414  447 2412.68  447 2411  C 447 2409.32  448.32 2408  450 2408  C 451.68 2408  453 2409.32  453 2411  C 453 2412.68  451.68 2414  450 2414  " fill-rule="nonzero" fill="#797979" stroke="none" />
</svg>