<?xml version="1.0" encoding="utf-8"?>
<svg version="1.1" xmlns:xlink="http://www.w3.org/1999/xlink" width="12px" height="12px" viewBox="333 2405  12 12" xmlns="http://www.w3.org/2000/svg">
  <path d="M 339 2405  C 342.36 2405  345 2407.64  345 2411  C 345 2414.36  342.36 2417  339 2417  C 335.64 2417  333 2414.36  333 2411  C 333 2407.64  335.64 2405  339 2405  Z " fill-rule="nonzero" fill="#ffffff" stroke="none" />
  <path d="M 339 2405.5  C 342.08 2405.5  344.5 2407.92  344.5 2411  C 344.5 2414.08  342.08 2416.5  339 2416.5  C 335.92 2416.5  333.5 2414.08  333.5 2411  C 333.5 2407.92  335.92 2405.5  339 2405.5  Z " stroke-width="1" stroke="#797979" fill="none" />
  <path d="M 339 2414  C 337.32 2414  336 2412.68  336 2411  C 336 2409.32  337.32 2408  339 2408  C 340.68 2408  342 2409.32  342 2411  C 342 2412.68  340.68 2414  339 2414  " fill-rule="nonzero" fill="#797979" stroke="none" />
</svg>