<?xml version="1.0" encoding="utf-8"?>
<svg version="1.1" xmlns:xlink="http://www.w3.org/1999/xlink" width="40px" height="40px" xmlns="http://www.w3.org/2000/svg">
  <defs>
    <filter x="252px" y="3150px" width="40px" height="40px" filterUnits="userSpaceOnUse" id="filter64">
      <feOffset dx="1" dy="1" in="SourceAlpha" result="shadowOffsetInner" />
      <feGaussianBlur stdDeviation="2.5" in="shadowOffsetInner" result="shadowGaussian" />
      <feComposite in2="shadowGaussian" operator="atop" in="SourceAlpha" result="shadowComposite" />
      <feColorMatrix type="matrix" values="0 0 0 0 0  0 0 0 0 0  0 0 0 0 0  0 0 0 0.698039215686274 0  " in="shadowComposite" />
    </filter>
    <g id="widget65">
      <path d="M 271 3154  C 279.4 3154  286 3160.6  286 3169  C 286 3177.4  279.4 3184  271 3184  C 262.6 3184  256 3177.4  256 3169  C 256 3160.6  262.6 3154  271 3154  Z " fill-rule="nonzero" fill="#009dd9" stroke="none" />
      <path d="M 271 3154.5  C 279.12 3154.5  285.5 3160.88  285.5 3169  C 285.5 3177.12  279.12 3183.5  271 3183.5  C 262.88 3183.5  256.5 3177.12  256.5 3169  C 256.5 3160.88  262.88 3154.5  271 3154.5  Z " stroke-width="1" stroke="#ffffff" fill="none" />
    </g>
  </defs>
  <g transform="matrix(1 0 0 1 -252 -3150 )">
    <use xlink:href="#widget65" filter="url(#filter64)" />
    <use xlink:href="#widget65" />
  </g>
</svg>