<?xml version="1.0" encoding="utf-8"?>
<svg version="1.1" xmlns:xlink="http://www.w3.org/1999/xlink" width="12px" height="12px" xmlns="http://www.w3.org/2000/svg">
  <g transform="matrix(1 0 0 1 -1410 -478 )">
    <path d="M 1416 478  C 1419.36 478  1422 480.64  1422 484  C 1422 487.36  1419.36 490  1416 490  C 1412.64 490  1410 487.36  1410 484  C 1410 480.64  1412.64 478  1416 478  Z " fill-rule="nonzero" fill="#cccccc" stroke="none" />
    <path d="M 1416 478.5  C 1419.08 478.5  1421.5 480.92  1421.5 484  C 1421.5 487.08  1419.08 489.5  1416 489.5  C 1412.92 489.5  1410.5 487.08  1410.5 484  C 1410.5 480.92  1412.92 478.5  1416 478.5  Z " stroke-width="1" stroke="#797979" fill="none" />
  </g>
</svg>