<?xml version="1.0" encoding="utf-8"?>
<svg version="1.1" xmlns:xlink="http://www.w3.org/1999/xlink" width="12px" height="12px" viewBox="1410 859  12 12" xmlns="http://www.w3.org/2000/svg">
  <path d="M 1416 859  C 1419.36 859  1422 861.64  1422 865  C 1422 868.36  1419.36 871  1416 871  C 1412.64 871  1410 868.36  1410 865  C 1410 861.64  1412.64 859  1416 859  Z " fill-rule="nonzero" fill="#ffffff" stroke="none" />
  <path d="M 1416 859.5  C 1419.08 859.5  1421.5 861.92  1421.5 865  C 1421.5 868.08  1419.08 870.5  1416 870.5  C 1412.92 870.5  1410.5 868.08  1410.5 865  C 1410.5 861.92  1412.92 859.5  1416 859.5  Z " stroke-width="1" stroke="#797979" fill="none" />
  <path d="M 1416 868  C 1414.32 868  1413 866.68  1413 865  C 1413 863.32  1414.32 862  1416 862  C 1417.68 862  1419 863.32  1419 865  C 1419 866.68  1417.68 868  1416 868  " fill-rule="nonzero" fill="#797979" stroke="none" />
</svg>