<?xml version="1.0" encoding="utf-8"?>
<svg version="1.1" xmlns:xlink="http://www.w3.org/1999/xlink" width="12px" height="12px" viewBox="254 877  12 12" xmlns="http://www.w3.org/2000/svg">
  <path d="M 260 877  C 263.36 877  266 879.64  266 883  C 266 886.36  263.36 889  260 889  C 256.64 889  254 886.36  254 883  C 254 879.64  256.64 877  260 877  Z " fill-rule="nonzero" fill="#ffffff" stroke="none" />
  <path d="M 260 877.5  C 263.08 877.5  265.5 879.92  265.5 883  C 265.5 886.08  263.08 888.5  260 888.5  C 256.92 888.5  254.5 886.08  254.5 883  C 254.5 879.92  256.92 877.5  260 877.5  Z " stroke-width="1" stroke="#797979" fill="none" />
  <path d="M 260 886  C 258.32 886  257 884.68  257 883  C 257 881.32  258.32 880  260 880  C 261.68 880  263 881.32  263 883  C 263 884.68  261.68 886  260 886  " fill-rule="nonzero" fill="#797979" stroke="none" />
</svg>