<?xml version="1.0" encoding="utf-8"?>
<svg version="1.1" xmlns:xlink="http://www.w3.org/1999/xlink" width="12px" height="12px" viewBox="254 811  12 12" xmlns="http://www.w3.org/2000/svg">
  <path d="M 260 811  C 263.36 811  266 813.64  266 817  C 266 820.36  263.36 823  260 823  C 256.64 823  254 820.36  254 817  C 254 813.64  256.64 811  260 811  Z " fill-rule="nonzero" fill="#ffffff" stroke="none" />
  <path d="M 260 811.5  C 263.08 811.5  265.5 813.92  265.5 817  C 265.5 820.08  263.08 822.5  260 822.5  C 256.92 822.5  254.5 820.08  254.5 817  C 254.5 813.92  256.92 811.5  260 811.5  Z " stroke-width="1" stroke="#797979" fill="none" />
  <path d="M 260 820  C 258.32 820  257 818.68  257 817  C 257 815.32  258.32 814  260 814  C 261.68 814  263 815.32  263 817  C 263 818.68  261.68 820  260 820  " fill-rule="nonzero" fill="#797979" stroke="none" />
</svg>