<?xml version="1.0" encoding="utf-8"?>
<svg version="1.1" xmlns:xlink="http://www.w3.org/1999/xlink" width="12px" height="13px" xmlns="http://www.w3.org/2000/svg">
  <g transform="matrix(1 0 0 1 -22 -634 )">
    <path d="M 9.22237762237762 6.5  L 11.4545454545455 7.80338541666667  C 11.7118881118881 7.95008680555556  11.8783216783217 8.16872829861111  11.9538461538462 8.45930989583333  C 12.0293706293706 8.74989149305556  11.9944055944056 9.02495659722222  11.848951048951 9.28450520833333  L 11.3118881118881 10.2154947916667  C 11.1664335664336 10.4750434027778  10.9496503496504 10.6429036458333  10.6615384615385 10.7190755208333  C 10.3734265734266 10.7952473958333  10.1006993006993 10.7599826388889  9.84335664335664 10.61328125  L 7.61118881118881 9.318359375  L 7.61118881118881 11.9166666666667  C 7.61118881118881 12.2100694444444  7.50489510489511 12.4639756944444  7.29230769230769 12.6783854166667  C 7.07972027972028 12.8927951388889  6.82797202797203 13  6.53706293706294 13  L 5.46293706293706 13  C 5.17202797202797 13  4.92027972027972 12.8927951388889  4.70769230769231 12.6783854166667  C 4.4951048951049 12.4639756944444  4.38881118881119 12.2100694444444  4.38881118881119 11.9166666666667  L 4.38881118881119 9.318359375  L 2.15664335664336 10.61328125  C 1.8993006993007 10.7599826388889  1.62657342657343 10.7952473958333  1.33846153846154 10.7190755208333  C 1.05034965034965 10.6429036458333  0.833566433566434 10.4750434027778  0.688111888111888 10.2154947916667  L 0.151048951048951 9.28450520833333  C 0.00559440559440563 9.02495659722222  -0.0293706293706294 8.74989149305556  0.0461538461538462 8.45930989583333  C 0.121678321678322 8.16872829861111  0.288111888111888 7.95008680555556  0.545454545454545 7.80338541666667  L 2.77762237762238 6.5  L 0.545454545454545 5.19661458333333  C 0.288111888111888 5.04991319444444  0.121678321678322 4.83127170138889  0.0461538461538462 4.54069010416667  C -0.0293706293706294 4.25010850694444  0.00559440559440563 3.97504340277778  0.151048951048951 3.71549479166667  L 0.688111888111888 2.78450520833333  C 0.833566433566434 2.52495659722222  1.05034965034965 2.35709635416667  1.33846153846154 2.28092447916667  C 1.62657342657343 2.20475260416667  1.8993006993007 2.24001736111111  2.15664335664336 2.38671875  L 4.38881118881119 3.681640625  L 4.38881118881119 1.08333333333333  C 4.38881118881119 0.789930555555555  4.4951048951049 0.536024305555555  4.70769230769231 0.321614583333334  C 4.92027972027972 0.10720486111111  5.17202797202797 0  5.46293706293706 0  L 6.53706293706294 0  C 6.82797202797203 0  7.07972027972028 0.10720486111111  7.29230769230769 0.321614583333334  C 7.50489510489511 0.536024305555555  7.61118881118881 0.789930555555555  7.61118881118881 1.08333333333333  L 7.61118881118881 3.681640625  L 9.84335664335664 2.38671875  C 10.1006993006993 2.24001736111111  10.3734265734266 2.20475260416667  10.6615384615385 2.28092447916667  C 10.9496503496504 2.35709635416667  11.1664335664336 2.52495659722222  11.3118881118881 2.78450520833333  L 11.848951048951 3.71549479166667  C 11.9944055944056 3.97504340277778  12.0293706293706 4.25010850694444  11.9538461538462 4.54069010416667  C 11.8783216783217 4.83127170138889  11.7118881118881 5.04991319444444  11.4545454545455 5.19661458333333  L 9.22237762237762 6.5  Z " fill-rule="nonzero" fill="#ffffff" stroke="none" transform="matrix(1 0 0 1 22 634 )" />
  </g>
</svg>