<?xml version="1.0" encoding="utf-8"?>
<svg version="1.1" xmlns:xlink="http://www.w3.org/1999/xlink" width="12px" height="12px" xmlns="http://www.w3.org/2000/svg">
  <g transform="matrix(1 0 0 1 -22 -745 )">
    <path d="M 9.9140625 7.65087605451006  C 10.1380208333333 7.1239454899416  10.25 6.57235561323816  10.25 5.99610642439974  C 10.25 5.16028552887735  10.0234375 4.39454899415964  9.5703125 3.69889682024659  L 3.6796875 9.56262167423751  C 4.39322916666667 10.024659312135  5.16666666666667 10.2556781310837  6 10.2556781310837  C 6.578125 10.2556781310837  7.12890625 10.1427644386762  7.65234375 9.91693705386113  C 8.17578125 9.69110966904607  8.62760416666667 9.38870863075925  9.0078125 9.00973393900065  C 9.38802083333333 8.63075924724205  9.69010416666667 8.17780661907852  9.9140625 7.65087605451006  Z M 1.75 5.99610642439974  C 1.75 6.83711875405581  1.98177083333333 7.61323815704088  2.4453125 8.32446463335496  L 8.34375 2.45295262816353  C 7.640625 1.9805321219987  6.859375 1.74432186891629  6 1.74432186891629  C 5.22916666666667 1.74432186891629  4.51822916666667 1.93380921479559  3.8671875 2.31278390655419  C 3.21614583333333 2.69175859831278  2.70052083333333 3.20830629461389  2.3203125 3.8624269954575  C 1.94010416666667 4.5165476963011  1.75 5.22777417261518  1.75 5.99610642439974  Z M 11.5234375 3.66385463984426  C 11.8411458333333 4.40363400389358  12 5.18105126541207  12 5.99610642439974  C 12 6.81116158338741  11.8411458333333 7.58987670343932  11.5234375 8.33225178455548  C 11.2057291666667 9.07462686567164  10.7799479166667 9.71317326411421  10.24609375 10.2478909798832  C 9.71223958333333 10.7826086956522  9.07421875 11.2083062946139  8.33203125 11.5249837767683  C 7.58984375 11.8416612589228  6.8125 12  6 12  C 5.1875 12  4.41015625 11.8416612589228  3.66796875 11.5249837767683  C 2.92578125 11.2083062946139  2.28776041666667 10.7826086956522  1.75390625 10.2478909798832  C 1.22005208333333 9.71317326411421  0.794270833333333 9.07462686567164  0.4765625 8.33225178455548  C 0.158854166666667 7.58987670343932  0 6.81116158338741  0 5.99610642439974  C 0 5.18105126541207  0.158854166666667 4.40363400389358  0.4765625 3.66385463984426  C 0.794270833333333 2.92407527579494  1.22005208333333 2.28682673588579  1.75390625 1.75210902011681  C 2.28776041666667 1.21739130434782  2.92578125 0.791693705386111  3.66796875 0.475016223231668  C 4.41015625 0.158338741077221  5.1875 0  6 0  C 6.8125 0  7.58984375 0.158338741077221  8.33203125 0.475016223231668  C 9.07421875 0.791693705386111  9.71223958333333 1.21739130434782  10.24609375 1.75210902011681  C 10.7799479166667 2.28682673588579  11.2057291666667 2.92407527579494  11.5234375 3.66385463984426  Z " fill-rule="nonzero" fill="#d7d7d7" stroke="none" transform="matrix(1 0 0 1 22 745 )" />
  </g>
</svg>