<?xml version="1.0" encoding="utf-8"?>
<svg version="1.1" xmlns:xlink="http://www.w3.org/1999/xlink" width="14px" height="14px" xmlns="http://www.w3.org/2000/svg">
  <g transform="matrix(1 0 0 1 -665 -313 )">
    <path d="M 13.9651988636364 10.6959635416667  C 13.9883996212121 11.0028211805556  14 11.3172743055556  14 11.6393229166667  C 14 12.3684895833333  13.7580492424242 12.9442274305556  13.2741477272727 13.3665364583333  C 12.7902462121212 13.7888454861111  12.1472537878788 14  11.3451704545455 14  L 2.65482954545455 14  C 1.85274621212121 14  1.20975378787879 13.7888454861111  0.725852272727273 13.3665364583333  C 0.241950757575758 12.9442274305556  0 12.3684895833333  0 11.6393229166667  C 0 11.3172743055556  0.0116003787878788 11.0028211805556  0.0348011363636364 10.6959635416667  C 0.058001893939394 10.3891059027778  0.104403409090909 10.0579427083333  0.174005681818182 9.70247395833333  C 0.243607954545455 9.34700520833333  0.331439393939394 9.01736111111111  0.4375 8.71354166666667  C 0.543560606060606 8.40972222222222  0.686079545454545 8.11349826388889  0.865056818181818 7.82486979166667  C 1.04403409090909 7.53624131944444  1.24952651515152 7.29014756944444  1.48153409090909 7.08658854166667  C 1.71354166666667 6.88302951388889  1.99692234848485 6.72048611111111  2.33167613636364 6.59895833333333  C 2.66642992424242 6.47743055555555  3.03598484848485 6.41666666666667  3.44034090909091 6.41666666666667  C 3.5 6.41666666666667  3.63920454545455 6.48198784722222  3.85795454545455 6.61263020833333  C 4.07670454545455 6.74327256944444  4.32362689393939 6.88910590277778  4.59872159090909 7.05013020833333  C 4.87381628787879 7.21115451388889  5.23177083333333 7.35698784722222  5.67258522727273 7.48763020833333  C 6.11339962121212 7.61827256944444  6.55587121212121 7.68359375  7 7.68359375  C 7.44412878787879 7.68359375  7.88660037878788 7.61827256944444  8.32741477272727 7.48763020833333  C 8.76822916666667 7.35698784722222  9.12618371212121 7.21115451388889  9.40127840909091 7.05013020833333  C 9.67637310606061 6.88910590277778  9.92329545454546 6.74327256944444  10.1420454545455 6.61263020833333  C 10.3607954545455 6.48198784722222  10.5 6.41666666666667  10.5596590909091 6.41666666666667  C 10.9640151515152 6.41666666666667  11.3335700757576 6.47743055555555  11.6683238636364 6.59895833333333  C 12.0030776515152 6.72048611111111  12.2864583333333 6.88302951388889  12.5184659090909 7.08658854166667  C 12.7504734848485 7.29014756944444  12.9559659090909 7.53624131944444  13.1349431818182 7.82486979166667  C 13.3139204545455 8.11349826388889  13.4564393939394 8.40972222222222  13.5625 8.71354166666667  C 13.6685606060606 9.01736111111111  13.7563920454545 9.34700520833333  13.8259943181818 9.70247395833333  C 13.8955965909091 10.0579427083333  13.9419981060606 10.3891059027778  13.9651988636364 10.6959635416667  Z M 9.69957386363636 1.025390625  C 10.4453125 1.708984375  10.8181818181818 2.53385416666667  10.8181818181818 3.5  C 10.8181818181818 4.46614583333333  10.4453125 5.291015625  9.69957386363636 5.974609375  C 8.95383522727273 6.658203125  8.05397727272727 7  7 7  C 5.94602272727273 7  5.04616477272727 6.658203125  4.30042613636364 5.974609375  C 3.5546875 5.291015625  3.18181818181818 4.46614583333333  3.18181818181818 3.5  C 3.18181818181818 2.53385416666667  3.5546875 1.708984375  4.30042613636364 1.025390625  C 5.04616477272727 0.341796875  5.94602272727273 0  7 0  C 8.05397727272727 0  8.95383522727273 0.341796875  9.69957386363636 1.025390625  Z " fill-rule="nonzero" fill="#ffffff" stroke="none" transform="matrix(1 0 0 1 665 313 )" />
  </g>
</svg>