<?xml version="1.0" encoding="utf-8"?>
<svg version="1.1" xmlns:xlink="http://www.w3.org/1999/xlink" width="17px" height="14px" xmlns="http://www.w3.org/2000/svg">
  <g transform="matrix(1 0 0 1 -1150 -1122 )">
    <path d="M 4.44487804878049 5.38461538461538  L 1.76634146341463 5.38461538461538  L 6.93268292682927 10.9795673076923  L 4.44487804878049 5.38461538461538  Z M 5.60585365853659 5.38461538461538  L 8.5 11.8798076923077  L 11.3941463414634 5.38461538461538  L 5.60585365853659 5.38461538461538  Z M 1.60048780487805 4.30769230769231  L 4.46975609756098 4.30769230769231  L 6.16146341463415 1.07692307692308  L 3.98878048780488 1.07692307692308  L 1.60048780487805 4.30769230769231  Z M 12.5551219512195 5.38461538461538  L 10.0673170731707 10.9795673076923  L 15.2336585365854 5.38461538461538  L 12.5551219512195 5.38461538461538  Z M 7.36390243902439 1.07692307692308  L 5.67219512195122 4.30769230769231  L 11.3278048780488 4.30769230769231  L 9.63609756097561 1.07692307692308  L 7.36390243902439 1.07692307692308  Z M 10.8385365853659 1.07692307692308  L 12.530243902439 4.30769230769231  L 15.399512195122 4.30769230769231  L 13.0112195121951 1.07692307692308  L 10.8385365853659 1.07692307692308  Z M 13.2765853658537 0  C 13.4590243902439 0  13.6 0.0729166666666656  13.699512195122 0.21875  L 16.8839024390244 4.52644230769231  C 16.9613008130081 4.62740384615385  16.9972357723577 4.74379006410256  16.9917073170732 4.87560096153846  C 16.9861788617886 5.00741185897436  16.9391869918699 5.12099358974359  16.8507317073171 5.21634615384615  L 8.88975609756098 13.8317307692308  C 8.79024390243903 13.9439102564103  8.66032520325203 14  8.5 14  C 8.33967479674797 14  8.20975609756097 13.9439102564103  8.11024390243902 13.8317307692308  L 0.149268292682927 5.21634615384615  C 0.0608130081300813 5.12099358974359  0.0138211382113821 5.00741185897436  0.00829268292682927 4.87560096153846  C 0.00276422764227642 4.74379006410256  0.0386991869918699 4.62740384615385  0.11609756097561 4.52644230769231  L 3.30048780487805 0.21875  C 3.4 0.0729166666666656  3.5409756097561 0  3.72341463414634 0  L 13.2765853658537 0  Z " fill-rule="nonzero" fill="#333333" stroke="none" transform="matrix(1 0 0 1 1150 1122 )" />
  </g>
</svg>