<?xml version="1.0" encoding="utf-8"?>
<svg version="1.1" xmlns:xlink="http://www.w3.org/1999/xlink" width="6px" height="6px" xmlns="http://www.w3.org/2000/svg">
  <g transform="matrix(1 0 0 1 -492 -296 )">
    <path d="M 1.39673527324344 4.60227272727273  C 1.55571327182399 4.76136363636364  1.63520227111427 4.95454545454545  1.63520227111427 5.18181818181818  C 1.63520227111427 5.40909090909091  1.55571327182399 5.60227272727273  1.39673527324344 5.76136363636364  C 1.23775727466288 5.92045454545455  1.04471256210078 6  0.817601135557133 6  C 0.590489709013485 6  0.397444996451384 5.92045454545455  0.23846699787083 5.76136363636364  C 0.0794889992902768 5.60227272727273  0 5.40909090909091  0 5.18181818181818  C 0 4.95454545454545  0.0794889992902768 4.76136363636364  0.23846699787083 4.60227272727273  C 0.397444996451384 4.44318181818182  0.590489709013485 4.36363636363636  0.817601135557133 4.36363636363636  C 1.04471256210078 4.36363636363636  1.23775727466288 4.44318181818182  1.39673527324344 4.60227272727273  Z M 3.47267565649397 4.40198863636364  C 3.66430092264017 4.81676136363636  3.77856635911994 5.25142045454546  3.81547196593329 5.70596590909091  C 3.82114975159688 5.78551136363636  3.79701916252662 5.85369318181818  3.7430801987225 5.91051136363636  C 3.69198012775018 5.97017045454545  3.62526614620298 6  3.54293825408091 6  L 2.9680624556423 6  C 2.89709013484741 6  2.8360539389638 5.9765625  2.78495386799148 5.9296875  C 2.73385379701916 5.8828125  2.70546486870121 5.82386363636364  2.69978708303762 5.75284090909091  C 2.63733144073811 5.10227272727273  2.37544357700497 4.54616477272727  1.91412349183818 4.08451704545455  C 1.4528034066714 3.62286931818182  0.89709013484741 3.36079545454545  0.246983676366217 3.29829545454546  C 0.176011355571327 3.29261363636364  0.117104329311569 3.26420454545455  0.0702625975869411 3.21306818181818  C 0.0234208658623137 3.16193181818182  0 3.10085227272727  0 3.02982954545455  L 0 2.45454545454545  C 0 2.37215909090909  0.0298083747338538 2.30539772727273  0.0894251242015614 2.25426136363636  C 0.137686302342087 2.20596590909091  0.198722498225692 2.18181818181818  0.272533711852378 2.18181818181818  L 0.293825408090845 2.18181818181818  C 0.748048261178141 2.21875  1.18239886444287 2.33309659090909  1.59687721788502 2.52485795454545  C 2.01135557132718 2.71661931818182  2.37899219304471 2.97443181818182  2.69978708303762 3.29829545454546  C 3.02342086586231 3.61931818181818  3.28105039034776 3.98721590909091  3.47267565649397 4.40198863636364  Z M 5.4847409510291 3.57741477272727  C 5.78850248403123 4.2578125  5.95883605393896 4.97017045454546  5.99574166075231 5.71448863636364  C 6.0014194464159 5.79119318181818  5.97586941092974 5.85795454545455  5.91909155429382 5.91477272727273  C 5.8679914833215 5.97159090909091  5.80269694819021 6  5.72320794889993 6  L 5.11426543647977 6  C 5.04045422285309 6  4.97728885734564 5.97514204545455  4.92476933995742 5.92542613636364  C 4.8722498225692 5.87571022727273  4.84457061745919 5.81534090909091  4.8417317246274 5.74431818181818  C 4.80766501064585 5.13352272727273  4.66430092264017 4.55326704545455  4.41163946061036 4.00355113636364  C 4.15897799858055 3.45383522727273  3.83037615330021 2.9765625  3.42583392476934 2.57173295454545  C 3.02129169623847 2.16690340909091  2.54435770049681 1.83806818181818  1.99503193754436 1.58522727272727  C 1.44570617459191 1.33238636363636  0.865862313697658 1.1875  0.255500354861604 1.15056818181818  C 0.184528034066714 1.14772727272727  0.124201561391057 1.12002840909091  0.0745209368346345 1.06747159090909  C 0.0248403122782115 1.01491477272727  0 0.953124999999999  0 0.882102272727272  L 0 0.272727272727272  C 0 0.193181818181818  0.028388928317956 0.127840909090909  0.085166784953868 0.0767045454545456  C 0.136266855926189 0.0255681818181819  0.198722498225692 0  0.272533711852378 0  L 0.285308729595458 0  C 1.02909865152591 0.0369318181818172  1.74095102909865 0.207386363636363  2.4208658623137 0.511363636363636  C 3.10078069552874 0.815340909090909  3.70475514549326 1.23295454545455  4.23278921220724 1.76420454545455  C 4.76366217175302 2.29261363636364  5.18097941802697 2.89701704545455  5.4847409510291 3.57741477272727  Z " fill-rule="nonzero" fill="#ffffff" stroke="none" transform="matrix(1 0 0 1 492 296 )" />
  </g>
</svg>