<?xml version="1.0" encoding="utf-8"?>
<svg version="1.1" xmlns:xlink="http://www.w3.org/1999/xlink" width="29px" height="29px" xmlns="http://www.w3.org/2000/svg">
  <g transform="matrix(1 0 0 1 -795 -1106 )">
    <path d="M 809.5 1106  C 817.62 1106  824 1112.38  824 1120.5  C 824 1128.62  817.62 1135  809.5 1135  C 801.38 1135  795 1128.62  795 1120.5  C 795 1112.38  801.38 1106  809.5 1106  Z " fill-rule="nonzero" fill="#ffffff" stroke="none" fill-opacity="0" />
    <path d="M 809.5 1106.5  C 817.34 1106.5  823.5 1112.66  823.5 1120.5  C 823.5 1128.34  817.34 1134.5  809.5 1134.5  C 801.66 1134.5  795.5 1128.34  795.5 1120.5  C 795.5 1112.66  801.66 1106.5  809.5 1106.5  Z " stroke-width="1" stroke="#797979" fill="none" />
  </g>
</svg>