<?xml version="1.0" encoding="utf-8"?>
<svg version="1.1" xmlns:xlink="http://www.w3.org/1999/xlink" width="20px" height="23px" xmlns="http://www.w3.org/2000/svg">
  <g transform="matrix(1 0 0 1 -269 -541 )">
    <path d="M 6.61931818181818 4.74789663461538  C 6.72348484848485 4.85386618589743  6.85132575757576 4.90685096153846  7.00284090909091 4.90685096153846  C 7.15435606060606 4.90685096153846  7.28456439393939 4.85386618589743  7.39346590909091 4.74789663461538  C 7.50236742424243 4.64192708333333  7.55681818181818 4.51522435897436  7.55681818181818 4.36778846153846  C 7.55681818181818 4.22035256410256  7.50236742424243 4.09364983974359  7.39346590909091 3.98768028846154  C 7.28456439393939 3.88171073717949  7.15435606060606 3.82872596153846  7.00284090909091 3.82872596153846  C 6.85132575757576 3.82872596153846  6.72348484848485 3.88171073717949  6.61931818181818 3.98768028846154  C 6.51515151515151 4.09364983974359  6.46306818181818 4.22035256410256  6.46306818181818 4.36778846153846  C 6.46306818181818 4.51522435897436  6.51515151515151 4.64192708333333  6.61931818181818 4.74789663461538  Z M 12.6065340909091 4.74789663461538  C 12.7154356060606 4.85386618589743  12.8456439393939 4.90685096153846  12.9971590909091 4.90685096153846  C 13.1486742424242 4.90685096153846  13.2765151515152 4.85386618589743  13.3806818181818 4.74789663461538  C 13.4848484848485 4.64192708333333  13.5369318181818 4.51522435897436  13.5369318181818 4.36778846153846  C 13.5369318181818 4.22035256410256  13.4848484848485 4.09364983974359  13.3806818181818 3.98768028846154  C 13.2765151515152 3.88171073717949  13.1486742424242 3.82872596153846  12.9971590909091 3.82872596153846  C 12.8456439393939 3.82872596153846  12.7154356060606 3.88171073717949  12.6065340909091 3.98768028846154  C 12.4976325757576 4.09364983974359  12.4431818181818 4.22035256410256  12.4431818181818 4.36778846153846  C 12.4431818181818 4.51522435897436  12.4976325757576 4.64192708333333  12.6065340909091 4.74789663461538  Z M 0.426136363636364 7.86478365384616  C 0.710227272727273 7.58834134615384  1.05587121212121 7.45012019230769  1.46306818181818 7.45012019230769  C 1.86079545454545 7.45012019230769  2.20170454545455 7.58834134615384  2.48579545454545 7.86478365384616  C 2.76988636363636 8.14122596153846  2.91193181818182 8.47295673076923  2.91193181818182 8.85997596153846  L 2.91193181818182 14.8034855769231  C 2.91193181818182 15.1997195512821  2.77225378787879 15.5360576923077  2.49289772727273 15.8125  C 2.21354166666667 16.0889423076923  1.87026515151515 16.2271634615385  1.46306818181818 16.2271634615385  C 1.05587121212121 16.2271634615385  0.710227272727273 16.0889423076923  0.426136363636364 15.8125  C 0.142045454545455 15.5360576923077  0 15.1997195512821  0 14.8034855769231  L 0 8.85997596153846  C 0 8.47295673076923  0.142045454545455 8.14122596153846  0.426136363636364 7.86478365384616  Z M 3.48011363636364 8  L 16.5198863636364 8  L 16.5198863636364 16.9182692307692  C 16.5198863636364 17.3421474358974  16.3683712121212 17.7015224358974  16.0653409090909 17.9963942307692  C 15.7623106060606 18.291266025641  15.3977272727273 18.4387019230769  14.9715909090909 18.4387019230769  L 13.90625 18.4387019230769  L 13.90625 21.5763221153846  C 13.90625 21.9725560897436  13.7642045454545 22.3088942307692  13.4801136363636 22.5853365384615  C 13.1960227272727 22.8617788461538  12.8503787878788 23  12.4431818181818 23  C 12.0359848484848 23  11.6903409090909 22.8617788461538  11.40625 22.5853365384615  C 11.1221590909091 22.3088942307692  10.9801136363636 21.9725560897436  10.9801136363636 21.5763221153846  L 10.9801136363636 18.4387019230769  L 9.01988636363636 18.4387019230769  L 9.01988636363636 21.5763221153846  C 9.01988636363636 21.9725560897436  8.87784090909091 22.3088942307692  8.59375 22.5853365384615  C 8.30965909090909 22.8617788461538  7.96401515151515 23  7.55681818181818 23  C 7.15909090909091 23  6.81818181818182 22.8617788461538  6.53409090909091 22.5853365384615  C 6.25 22.3088942307692  6.10795454545455 21.9725560897436  6.10795454545455 21.5763221153846  L 6.09375 18.4387019230769  L 5.04261363636364 18.4387019230769  C 4.60700757575758 18.4387019230769  4.23768939393939 18.291266025641  3.93465909090909 17.9963942307692  C 3.63162878787879 17.7015224358974  3.48011363636364 17.3421474358974  3.48011363636364 16.9182692307692  L 3.48011363636364 8  Z M 14.2329545454545 0.304086538461539  L 13.2244318181818 2.11478365384615  C 14.2376893939394 2.62159455128205  15.0473484848485 3.32882612179487  15.6534090909091 4.23647836538462  C 16.2594696969697 5.14413060897436  16.5625 6.13701923076923  16.5625 7.21514423076923  L 3.42329545454545 7.21514423076923  C 3.42329545454545 6.13701923076923  3.72632575757576 5.14413060897436  4.33238636363636 4.23647836538462  C 4.93844696969697 3.32882612179487  5.75284090909091 2.62159455128205  6.77556818181818 2.11478365384615  L 5.76704545454545 0.304086538461539  C 5.70075757575758 0.184294871794871  5.72443181818182 0.092147435897433  5.83806818181818 0.0276442307692319  C 5.96117424242424 -0.0276442307692319  6.05587121212121 0  6.12215909090909 0.110576923076923  L 7.14488636363636 1.93509615384615  C 8.04450757575758 1.54807692307692  8.99621212121212 1.35456730769231  10 1.35456730769231  C 11.0037878787879 1.35456730769231  11.9554924242424 1.54807692307692  12.8551136363636 1.93509615384615  L 13.8778409090909 0.110576923076923  C 13.9441287878788 0  14.0388257575758 -0.0276442307692319  14.1619318181818 0.0276442307692319  C 14.2755681818182 0.092147435897433  14.2992424242424 0.184294871794871  14.2329545454545 0.304086538461539  Z M 19.5738636363636 7.85787259615384  C 19.8579545454545 8.12970753205128  20 8.46374198717949  20 8.85997596153846  L 20 14.8034855769231  C 20 15.1997195512821  19.8579545454545 15.5360576923077  19.5738636363636 15.8125  C 19.2897727272727 16.0889423076923  18.9441287878788 16.2271634615385  18.5369318181818 16.2271634615385  C 18.1392045454545 16.2271634615385  17.7982954545455 16.0889423076923  17.5142045454545 15.8125  C 17.2301136363636 15.5360576923077  17.0880681818182 15.1997195512821  17.0880681818182 14.8034855769231  L 17.0880681818182 8.85997596153846  C 17.0880681818182 8.46374198717949  17.2301136363636 8.12970753205128  17.5142045454545 7.85787259615384  C 17.7982954545455 7.58603766025641  18.1392045454545 7.45012019230769  18.5369318181818 7.45012019230769  C 18.9441287878788 7.45012019230769  19.2897727272727 7.58603766025641  19.5738636363636 7.85787259615384  Z " fill-rule="nonzero" fill="#333333" stroke="none" transform="matrix(1 0 0 1 269 541 )" />
  </g>
</svg>