<?xml version="1.0" encoding="utf-8"?>
<svg version="1.1" xmlns:xlink="http://www.w3.org/1999/xlink" width="101px" height="72px" xmlns="http://www.w3.org/2000/svg">
  <g transform="matrix(1 0 0 1 -843 -1218 )">
    <path d="M 843 1218  L 944 1218  L 944 1290  L 843 1290  L 843 1218  " fill-rule="nonzero" fill="#cccccc" stroke="none" />
    <path d="M 848 1223  L 939 1223  L 939 1285  L 848 1285  L 848 1223  " fill-rule="nonzero" fill="#ffffff" stroke="none" />
    <path d="M 900.92 1239.6  C 897.896 1239.6  895.52 1237.224  895.52 1234.2  C 895.52 1231.176  897.896 1228.8  900.92 1228.8  C 903.944 1228.8  906.32 1231.176  906.32 1234.2  C 906.32 1237.224  903.944 1239.6  900.92 1239.6  " fill-rule="nonzero" fill="#cccccc" stroke="none" />
    <path d="M 850 1283  L 850 1251.1  L 871.75 1236.6  L 902.2 1258.19207920792  L 919.6 1245.3  L 937 1258.19207920792  L 937 1283  L 850 1283  " fill-rule="nonzero" fill="#169bd5" stroke="none" />
  </g>
</svg>