<?xml version="1.0" encoding="utf-8"?>
<svg version="1.1" xmlns:xlink="http://www.w3.org/1999/xlink" width="184px" height="114px" xmlns="http://www.w3.org/2000/svg">
  <g transform="matrix(1 0 0 1 -1718 -1329 )">
    <path d="M 1718 1329  L 1902 1329  L 1902 1443  L 1718 1443  L 1718 1329  " fill-rule="nonzero" fill="#cccccc" stroke="none" />
    <path d="M 1726 1337  L 1894 1337  L 1894 1435  L 1726 1435  L 1726 1337  " fill-rule="nonzero" fill="#ffffff" stroke="none" />
    <path d="M 1822.23 1363.2  C 1817.442 1363.2  1813.68 1359.438  1813.68 1354.65  C 1813.68 1349.862  1817.442 1346.1  1822.23 1346.1  C 1827.018 1346.1  1830.78 1349.862  1830.78 1354.65  C 1830.78 1359.438  1827.018 1363.2  1822.23 1363.2  " fill-rule="nonzero" fill="#cccccc" stroke="none" />
    <path d="M 1729 1432  L 1729 1381.4  L 1769.5 1358.4  L 1826.2 1397.8  L 1858.6 1372.2  L 1891 1397.8  L 1891 1432  L 1729 1432  " fill-rule="nonzero" fill="#169bd5" stroke="none" />
  </g>
</svg>