<?xml version="1.0" encoding="utf-8"?>
<svg version="1.1" xmlns:xlink="http://www.w3.org/1999/xlink" width="9px" height="9px" xmlns="http://www.w3.org/2000/svg">
  <g transform="matrix(1 0 0 1 -1766 -693 )">
    <path d="M 2.09510290986515 6.90340909090909  C 2.33356990773598 7.14204545454546  2.4528034066714 7.43181818181818  2.4528034066714 7.77272727272727  C 2.4528034066714 8.11363636363636  2.33356990773598 8.40340909090909  2.09510290986515 8.64204545454546  C 1.85663591199432 8.88068181818182  1.56706884315117 9  1.2264017033357 9  C 0.885734563520227 9  0.596167494677076 8.88068181818182  0.357700496806246 8.64204545454546  C 0.119233498935415 8.40340909090909  0 8.11363636363636  0 7.77272727272727  C 0 7.43181818181818  0.119233498935415 7.14204545454546  0.357700496806246 6.90340909090909  C 0.596167494677076 6.66477272727273  0.885734563520227 6.54545454545455  1.2264017033357 6.54545454545455  C 1.56706884315117 6.54545454545455  1.85663591199432 6.66477272727273  2.09510290986515 6.90340909090909  Z M 5.20901348474095 6.60298295454545  C 5.49645138396026 7.22514204545455  5.66784953867992 7.87713068181818  5.72320794889993 8.55894886363636  C 5.73172462739532 8.67826704545455  5.69552874378992 8.78053977272727  5.61462029808375 8.86576704545455  C 5.53797019162527 8.95525568181818  5.43789921930447 9  5.31440738112136 9  L 4.45209368346345 9  C 4.34563520227111 9  4.25408090844571 8.96484375  4.17743080198723 8.89453125  C 4.10078069552874 8.82421875  4.05819730305181 8.73579545454546  4.04968062455642 8.62926136363636  C 3.95599716110717 7.65340909090909  3.56316536550745 6.81924715909091  2.87118523775727 6.12677556818182  C 2.1792051100071 5.43430397727273  1.34563520227111 5.04119318181818  0.370475514549326 4.94744318181818  C 0.264017033356991 4.93892045454546  0.175656493967353 4.89630681818182  0.105393896380412 4.81960227272727  C 0.0351312987934705 4.74289772727273  0 4.65127840909091  0 4.54474431818182  L 0 3.68181818181818  C 0 3.55823863636364  0.0447125621007807 3.45809659090909  0.134137686302342 3.38139204545455  C 0.20652945351313 3.30894886363636  0.298083747338538 3.27272727272727  0.408800567778566 3.27272727272727  L 0.440738112136267 3.27272727272727  C 1.12207239176721 3.328125  1.7735982966643 3.49964488636364  2.39531582682754 3.78728693181818  C 3.01703335699077 4.07492897727273  3.56848828956707 4.46164772727273  4.04968062455642 4.94744318181818  C 4.53513129879347 5.42897727272727  4.92157558552165 5.98082386363636  5.20901348474095 6.60298295454545  Z M 8.22711142654365 5.36612215909091  C 8.68275372604684 6.38671875  8.93825408090845 7.45525568181818  8.99361249112846 8.57173295454546  C 9.00212916962385 8.68678977272727  8.96380411639461 8.78693181818182  8.87863733144074 8.87215909090909  C 8.80198722498226 8.95738636363636  8.70404542228531 9  8.58481192334989 9  L 7.67139815471966 9  C 7.56068133427963 9  7.46593328601845 8.96271306818182  7.38715400993612 8.88813920454546  C 7.3083747338538 8.81356534090909  7.26685592618879 8.72301136363636  7.26259758694109 8.61647727272727  C 7.21149751596877 7.70028409090909  6.99645138396026 6.82990056818182  6.61745919091554 6.00532670454545  C 6.23846699787083 5.18075284090909  5.74556422995032 4.46484375  5.13875088715401 3.85759943181818  C 4.5319375443577 3.25035511363636  3.81653655074521 2.75710227272727  2.99254790631654 2.37784090909091  C 2.16855926188786 1.99857954545454  1.29879347054649 1.78125  0.383250532292406 1.72585227272727  C 0.276792051100071 1.72159090909091  0.186302342086586 1.68004261363636  0.111781405251952 1.60120738636364  C 0.0372604684173172 1.52237215909091  0 1.4296875  0 1.32315340909091  L 0 0.409090909090909  C 0 0.289772727272727  0.042583392476934 0.191761363636364  0.127750177430802 0.115056818181818  C 0.204400283889283 0.0383522727272728  0.298083747338538 0  0.408800567778566 0  L 0.427963094393187 0  C 1.54364797728886 0.0553977272727259  2.61142654364798 0.311079545454544  3.63129879347055 0.767045454545454  C 4.65117104329312 1.22301136363636  5.55713271823989 1.84943181818182  6.34918381831086 2.64630681818182  C 7.14549325762952 3.43892045454545  7.77146912704045 4.34552556818182  8.22711142654365 5.36612215909091  Z " fill-rule="nonzero" fill="#cccccc" stroke="none" transform="matrix(1 0 0 1 1766 693 )" />
  </g>
</svg>