<?xml version="1.0" encoding="utf-8"?>
<svg version="1.1" xmlns:xlink="http://www.w3.org/1999/xlink" width="22px" height="23px" xmlns="http://www.w3.org/2000/svg">
  <g transform="matrix(1 0 0 1 -2303 -954 )">
    <path d="M 13.0269151138716 10.9699398797595  C 13.1787439613527 11.123580494322  13.2546583850932 11.3002672010688  13.2546583850932 11.5  C 13.2546583850932 11.6997327989312  13.1787439613527 11.876419505678  13.0269151138716 12.0300601202405  L 2.41407867494824 22.7695390781563  C 2.26224982746722 22.9231796927188  2.08764665286404 23  1.89026915113872 23  C 1.69289164941339 23  1.51828847481021 22.9231796927188  1.36645962732919 22.7695390781563  L 0.227743271221532 21.6172344689379  C 0.0759144237405108 21.4635938543754  0 21.2869071476286  0 21.0871743486974  C 0 20.8874415497662  0.0759144237405108 20.7107548430194  0.227743271221532 20.5571142284569  L 9.17805383022774 11.5  L 0.227743271221532 2.44288577154309  C 0.0759144237405108 2.28924515698063  0 2.1125584502338  0 1.91282565130261  C 0 1.71309285237141  0.0759144237405108 1.53640614562458  0.227743271221532 1.38276553106212  L 1.36645962732919 0.230460921843688  C 1.51828847481021 0.0768203072812284  1.69289164941339 0  1.89026915113872 0  C 2.08764665286404 0  2.26224982746722 0.0768203072812284  2.41407867494824 0.230460921843688  L 13.0269151138716 10.9699398797595  Z M 21.7722567287785 10.9699398797595  C 21.9240855762595 11.123580494322  22 11.3002672010688  22 11.5  C 22 11.6997327989312  21.9240855762595 11.876419505678  21.7722567287785 12.0300601202405  L 11.1594202898551 22.7695390781563  C 11.0075914423741 22.9231796927188  10.8329882677709 23  10.6356107660455 23  C 10.4382332643202 23  10.263630089717 22.9231796927188  10.111801242236 22.7695390781563  L 8.97308488612837 21.6172344689379  C 8.82125603864734 21.4635938543754  8.74534161490683 21.2869071476286  8.74534161490683 21.0871743486974  C 8.74534161490683 20.8874415497662  8.82125603864734 20.7107548430194  8.97308488612837 20.5571142284569  L 17.9233954451346 11.5  L 8.97308488612837 2.44288577154309  C 8.82125603864734 2.28924515698063  8.74534161490683 2.1125584502338  8.74534161490683 1.91282565130261  C 8.74534161490683 1.71309285237141  8.82125603864734 1.53640614562458  8.97308488612837 1.38276553106212  L 10.111801242236 0.230460921843688  C 10.263630089717 0.0768203072812284  10.4382332643202 0  10.6356107660455 0  C 10.8329882677709 0  11.0075914423741 0.0768203072812284  11.1594202898551 0.230460921843688  L 21.7722567287785 10.9699398797595  Z " fill-rule="nonzero" fill="#169bd5" stroke="none" transform="matrix(1 0 0 1 2303 954 )" />
  </g>
</svg>