<?xml version="1.0" encoding="utf-8"?>
<svg version="1.1" xmlns:xlink="http://www.w3.org/1999/xlink" width="101px" height="101px" xmlns="http://www.w3.org/2000/svg">
  <g transform="matrix(1 0 0 1 -3582 -1288 )">
    <path d="M 3632.5 1288  C 3660.78 1288  3683 1310.22  3683 1338.5  C 3683 1366.78  3660.78 1389  3632.5 1389  C 3604.22 1389  3582 1366.78  3582 1338.5  C 3582 1310.22  3604.22 1288  3632.5 1288  Z " fill-rule="nonzero" fill="#ffffff" stroke="none" />
    <path d="M 3632.5 1288.5  C 3660.5 1288.5  3682.5 1310.5  3682.5 1338.5  C 3682.5 1366.5  3660.5 1388.5  3632.5 1388.5  C 3604.5 1388.5  3582.5 1366.5  3582.5 1338.5  C 3582.5 1310.5  3604.5 1288.5  3632.5 1288.5  Z " stroke-width="1" stroke="#797979" fill="none" />
  </g>
</svg>