<?xml version="1.0" encoding="utf-8"?>
<svg version="1.1" xmlns:xlink="http://www.w3.org/1999/xlink" width="18px" height="18px" xmlns="http://www.w3.org/2000/svg">
  <g transform="matrix(1 0 0 1 -499 -1302 )">
    <path d="M 508 1304  C 511.92 1304  515 1307.08  515 1311  C 515 1314.92  511.92 1318  508 1318  C 504.08 1318  501 1314.92  501 1311  C 501 1307.08  504.08 1304  508 1304  Z " fill-rule="nonzero" fill="#ffffff" stroke="none" fill-opacity="0" />
    <path d="M 508 1303.5  C 512.2 1303.5  515.5 1306.8  515.5 1311  C 515.5 1315.2  512.2 1318.5  508 1318.5  C 503.8 1318.5  500.5 1315.2  500.5 1311  C 500.5 1306.8  503.8 1303.5  508 1303.5  Z " stroke-width="3" stroke="#ffffff" fill="none" />
  </g>
</svg>