<?xml version="1.0" encoding="utf-8"?>
<svg version="1.1" xmlns:xlink="http://www.w3.org/1999/xlink" width="12px" height="62px" preserveAspectRatio="xMidYMin meet" viewBox="955 974  10 62" xmlns="http://www.w3.org/2000/svg">
  <path d="M 942 980.5  L 955 980.5  A 5 5 0 0 1 960.5 985.5 L 960.5 1025  A 5 5 0 0 0 965 1030.5 L 1134.5 1030.5  A 3 3 0 0 1 1137.5 1027.5 A 3 3 0 0 1 1140.5 1030.5 L 1411 1030.5  A 3 3 0 0 1 1414 1027.5 A 3 3 0 0 1 1417 1030.5 L 1548.75 1030.5  A 5 5 0 0 1 1554.25 1035 L 1554.25 1124  A 3 3 0 0 1 1557.25 1127 A 3 3 0 0 1 1554.25 1130 L 1554.25 1759  A 5 5 0 0 0 1559.25 1764.5 L 1686 1764.5  " stroke-width="3" stroke-dasharray="9,3" stroke="#ff0000" fill="none" />
  <path d="M 1684 1773.4  L 1693 1764.5  L 1684 1755.6  L 1684 1773.4  Z M 1687 1766.2  L 1687 1762.8  L 1688.5 1764.5  L 1687 1766.2  Z " fill-rule="nonzero" fill="#ff0000" stroke="none" />
</svg>