<?xml version="1.0" encoding="utf-8"?>
<svg version="1.1" xmlns:xlink="http://www.w3.org/1999/xlink" width="12px" height="36px" preserveAspectRatio="xMidYMin meet" viewBox="612 124  10 36" xmlns="http://www.w3.org/2000/svg">
  <path d="M 3727.5 1242  L 3727.5 1241.5  A 1.5 1.5 0 0 1 3729 1240.5 A 1.5 1.5 0 0 1 3730.5 1242 L 3730.5 1505  A 5 5 0 0 1 3725 1510.5 L 2639 1510.5  A 3 3 0 0 0 2636 1507.5 A 3 3 0 0 0 2633 1510.5 L 1595 1510.5  A 5 5 0 0 1 1590.5 1505 L 1590.5 1130  A 3 3 0 0 0 1593.5 1127 A 3 3 0 0 0 1590.5 1124 L 1590.5 271  A 3 3 0 0 0 1593.5 268 A 3 3 0 0 0 1590.5 265 L 1590.5 135  A 5 5 0 0 0 1585.5 130.5 L 622 130.5  A 5 5 0 0 0 617.5 135.5 L 617.5 153  " stroke-width="3" stroke-dasharray="9,3" stroke="#ff0000" fill="none" />
  <path d="M 608.6 151  L 617.5 160  L 626.4 151  L 608.6 151  Z M 615.8 154  L 619.2 154  L 617.5 155.5  L 615.8 154  Z " fill-rule="nonzero" fill="#ff0000" stroke="none" />
</svg>