<?xml version="1.0" encoding="utf-8"?>
<svg version="1.1" xmlns:xlink="http://www.w3.org/1999/xlink" width="12px" height="11px" preserveAspectRatio="xMinYMid meet" viewBox="225 1151  12 9" xmlns="http://www.w3.org/2000/svg">
  <path d="M 231 1150.5  A 5 5 0 0 0 236 1155.5 L 624 1155.5  A 3 3 0 0 1 627 1152.5 A 3 3 0 0 1 630 1155.5 L 717 1155.5  A 3 3 0 0 1 720 1152.5 A 3 3 0 0 1 723 1155.5 L 818 1155.5  " stroke-width="3" stroke-dasharray="9,3" stroke="#ff0000" fill="none" />
  <path d="M 816 1164.4  L 825 1155.5  L 816 1146.6  L 816 1164.4  Z M 819 1157.2  L 819 1153.8  L 820.5 1155.5  L 819 1157.2  Z " fill-rule="nonzero" fill="#ff0000" stroke="none" />
</svg>