<?xml version="1.0" encoding="utf-8"?>
<svg version="1.1" xmlns:xlink="http://www.w3.org/1999/xlink" width="1192px" height="12px" preserveAspectRatio="xMinYMid meet" viewBox="774 245  1192 10" xmlns="http://www.w3.org/2000/svg">
  <path d="M 3514.5 1262  L 3514.5 1285  A 5 5 0 0 1 3509 1290.5 L 2206 1290.5  A 3 3 0 0 0 2203 1287.5 A 3 3 0 0 0 2200 1290.5 L 2003 1290.5  A 3 3 0 0 0 2000 1287.5 A 3 3 0 0 0 1997 1290.5 L 1965 1290.5  A 5 5 0 0 1 1960.5 1285.5 L 1960.5 255  A 5 5 0 0 0 1955 250.5 L 1593 250.5  A 3 3 0 0 0 1590 247.5 A 3 3 0 0 0 1587 250.5 L 785 250.5  A 5 5 0 0 1 780.5 245.5 L 780.5 226  A 5 5 0 0 0 775.5 221.5 L 756 221.5  " stroke-width="3" stroke-dasharray="9,3" stroke="#ff0000" fill="none" />
  <path d="M 758 212.6  L 749 221.5  L 758 230.4  L 758 212.6  Z M 755 219.8  L 755 223.2  L 753.5 221.5  L 755 219.8  Z " fill-rule="nonzero" fill="#ff0000" stroke="none" />
</svg>