<?xml version="1.0" encoding="utf-8"?>
<svg version="1.1" xmlns:xlink="http://www.w3.org/1999/xlink" width="12px" height="47px" preserveAspectRatio="xMidYMin meet" viewBox="3135 719  10 47" xmlns="http://www.w3.org/2000/svg">
  <path d="M 3230 725.5  L 3145 725.5  A 5 5 0 0 0 3140.5 730.5 L 3140.5 755  A 5 5 0 0 1 3135.5 760.5 L 2985 760.5  A 5 5 0 0 1 2980.5 755.5 L 2980.5 635  A 5 5 0 0 0 2975.5 630.5 L 2517 630.5  A 5 5 0 0 0 2512.5 635.5 L 2512.5 684  " stroke-width="3" stroke-dasharray="9,3" stroke="#ff0000" fill="none" />
  <path d="M 2503.6 682  L 2512.5 691  L 2521.4 682  L 2503.6 682  Z M 2510.8 685  L 2514.2 685  L 2512.5 686.5  L 2510.8 685  Z " fill-rule="nonzero" fill="#ff0000" stroke="none" />
</svg>