<?xml version="1.0" encoding="utf-8"?>
<svg version="1.1" xmlns:xlink="http://www.w3.org/1999/xlink" width="15px" height="15px" xmlns="http://www.w3.org/2000/svg">
  <g transform="matrix(1 0 0 1 -2723 -857 )">
    <path d="M 11.62109375 11.62109375  C 12.7625868055556 10.4796006944444  13.3333333333333 9.10590277777778  13.3333333333333 7.5  C 13.3333333333333 5.89409722222222  12.7625868055556 4.52039930555556  11.62109375 3.37890625  C 10.4796006944444 2.23741319444444  9.10590277777778 1.66666666666667  7.5 1.66666666666667  C 5.89409722222222 1.66666666666667  4.52039930555556 2.23741319444444  3.37890625 3.37890625  C 2.23741319444444 4.52039930555556  1.66666666666667 5.89409722222222  1.66666666666667 7.5  C 1.66666666666667 9.10590277777778  2.23741319444444 10.4796006944444  3.37890625 11.62109375  C 4.52039930555556 12.7625868055556  5.89409722222222 13.3333333333333  7.5 13.3333333333333  C 9.10590277777778 13.3333333333333  10.4796006944444 12.7625868055556  11.62109375 11.62109375  Z M 14.4075520833333 4.58984375  C 14.8025173611111 5.51432291666667  15 6.484375  15 7.5  C 15 8.515625  14.8025173611111 9.48567708333333  14.4075520833333 10.41015625  C 14.0125868055556 11.3346354166667  13.4787326388889 12.1332465277778  12.8059895833333 12.8059895833333  C 12.1332465277778 13.4787326388889  11.3346354166667 14.0125868055556  10.41015625 14.4075520833333  C 9.48567708333333 14.8025173611111  8.515625 15  7.5 15  C 6.484375 15  5.51432291666667 14.8025173611111  4.58984375 14.4075520833333  C 3.66536458333333 14.0125868055556  2.86675347222222 13.4787326388889  2.19401041666667 12.8059895833333  C 1.52126736111111 12.1332465277778  0.987413194444445 11.3346354166667  0.592447916666667 10.41015625  C 0.197482638888889 9.48567708333333  0 8.515625  0 7.5  C 0 6.484375  0.197482638888889 5.51432291666667  0.592447916666667 4.58984375  C 0.987413194444445 3.66536458333333  1.52126736111111 2.86675347222222  2.19401041666667 2.19401041666667  C 2.86675347222222 1.52126736111111  3.66536458333333 0.987413194444444  4.58984375 0.592447916666667  C 5.51432291666667 0.197482638888886  6.484375 0  7.5 0  C 8.515625 0  9.48567708333333 0.197482638888886  10.41015625 0.592447916666667  C 11.3346354166667 0.987413194444444  12.1332465277778 1.52126736111111  12.8059895833333 2.19401041666667  C 13.4787326388889 2.86675347222222  14.0125868055556 3.66536458333333  14.4075520833333 4.58984375  Z " fill-rule="nonzero" fill="#333333" stroke="none" transform="matrix(1 0 0 1 2723 857 )" />
  </g>
</svg>